<?xml version="1.0" encoding="UTF-8"?>
<svg version="1.1" xmlns="http://www.w3.org/2000/svg" width="728" height="121">
<path d="M0 0 C5.36812567 2.25250763 7.88938557 6.1879288 10.625 11.1875 C12.59728344 17.31195909 12.8058563 22.36849353 10 28.25 C8.59108817 30.87349099 7.08384129 32.93154262 4.8125 34.875 C4.1525 34.875 3.4925 34.875 2.8125 34.875 C2.8125 35.535 2.8125 36.195 2.8125 36.875 C-4.66777362 39.86710945 -9.61774951 39.39825016 -17.1875 36.875 C-17.5175 41.165 -17.8475 45.455 -18.1875 49.875 C-22.1475 49.875 -26.1075 49.875 -30.1875 49.875 C-30.21214201 42.91496034 -30.23033222 35.95494584 -30.24243164 28.99487305 C-30.24747341 26.62507688 -30.25430665 24.25528385 -30.26293945 21.88549805 C-30.2750119 18.48745961 -30.28072971 15.08946215 -30.28515625 11.69140625 C-30.29031754 10.62475235 -30.29547882 9.55809845 -30.30079651 8.4591217 C-30.30087204 7.47818039 -30.30094757 6.49723907 -30.30102539 5.48657227 C-30.303246 4.61831314 -30.30546661 3.75005402 -30.30775452 2.85548401 C-30.1875 0.875 -30.1875 0.875 -29.1875 -0.125 C-27.33462498 -0.19726502 -25.47916122 -0.2088122 -23.625 -0.1875 C-22.61308594 -0.17847656 -21.60117188 -0.16945312 -20.55859375 -0.16015625 C-19.38490234 -0.14275391 -19.38490234 -0.14275391 -18.1875 -0.125 C-18.1875 0.535 -18.1875 1.195 -18.1875 1.875 C-17.3625 1.38 -16.5375 0.885 -15.6875 0.375 C-10.21942277 -1.96846167 -5.55615215 -1.75787865 0 0 Z M-15.1875 9.875 C-18.39096956 14.020218 -18.39096956 14.020218 -19.1015625 19.01171875 C-18.2766828 22.66958693 -17.36038155 25.62754224 -14.1875 27.875 C-11.4076184 29.2649408 -9.2688674 29.05988204 -6.1875 28.875 C-3.58080715 27.93737602 -2.45638817 27.33074266 -1.03515625 24.921875 C0.34728515 20.87771807 1.05572686 18.69589066 -0.1875 14.5 C-2.3614857 11.64664377 -3.89765039 10.28493555 -7.1875 8.875 C-10.35464972 8.57336669 -12.14474308 8.86074769 -15.1875 9.875 Z " fill="#DEE4EE" transform="translate(269.1875,45.125)"/>
<path d="M0 0 C2.64295657 0.1301949 5.29175297 0.17182738 7.9375 0.125 C8.62134766 0.11597656 9.30519531 0.10695312 10.00976562 0.09765625 C11.67333287 0.07438958 13.33671631 0.03853167 15 0 C16.52348035 3.04696071 16.14211557 6.22080061 16.1328125 9.5625 C16.13376923 10.30959229 16.13472595 11.05668457 16.13571167 11.82641602 C16.13639249 13.40673914 16.13454503 14.98706506 16.13037109 16.56738281 C16.12502142 18.9902981 16.13031935 21.413028 16.13671875 23.8359375 C16.13605795 25.36979208 16.13477675 26.90364654 16.1328125 28.4375 C16.13483673 29.16461182 16.13686096 29.89172363 16.13894653 30.64086914 C16.1149618 35.77007639 16.1149618 35.77007639 15 38 C11.31868849 39.09075897 8.21764691 38.96266054 4.4375 38.5 C0.90256098 38.06855113 -1.58429023 38.09684016 -5 39 C-11.30132735 39.05199115 -16.14244639 38.27927342 -21 34 C-26.09216318 27.5315765 -26.8821305 21.0494408 -26 13 C-24.34683071 7.74399981 -21.81148618 3.8241332 -17 1 C-10.39661044 -1.79633333 -6.92808702 -2.03204253 0 0 Z M-12 11 C-14.6803257 15.02048854 -14.80395376 18.27573564 -14 23 C-11.58478368 26.40971716 -9.94978135 27.68340622 -6 29 C-2.32362684 29 -0.81442135 28.34535113 2 26 C3.89441323 22.90005108 4.00323683 21.09224952 3.875 17.4375 C2.90805033 13.63876917 2.1502631 12.27519002 -1 10 C-5.1631831 8.4661957 -8.00216272 9.22318343 -12 11 Z " fill="#EEF1F7" transform="translate(542,45)"/>
<path d="M0 0 C4.9527965 2.86206683 8.45506135 7.06640009 10.625 12.375 C10.8203125 14.953125 10.8203125 14.953125 10.75 17.625 C10.73195313 18.51703125 10.71390625 19.4090625 10.6953125 20.328125 C10.67210937 21.00359375 10.64890625 21.6790625 10.625 22.375 C6.665 22.87 6.665 22.87 2.625 23.375 C2.625 24.035 2.625 24.695 2.625 25.375 C3.429375 25.643125 4.23375 25.91125 5.0625 26.1875 C5.908125 26.579375 6.75375 26.97125 7.625 27.375 C8.12 28.86 8.12 28.86 8.625 30.375 C2.78495908 36.01978119 -2.08137052 38.3472536 -10.3125 38.75 C-16.35279382 38.59418058 -20.82939176 36.86514837 -25.16796875 32.62109375 C-30.38777079 26.68217409 -30.72128521 22.75524195 -30.65625 14.8046875 C-30.20029256 9.24453985 -27.95293051 6.82835705 -24 3.1875 C-16.49533528 -1.99429231 -8.66002242 -3.91997227 0 0 Z M-15.75 10.875 C-16.28625 11.7 -16.8225 12.525 -17.375 13.375 C-14.53943413 14.79278293 -12.3841294 14.23757622 -9.25 13.9375 C-8.15429688 13.83566406 -7.05859375 13.73382813 -5.9296875 13.62890625 C-5.08664062 13.54511719 -4.24359375 13.46132813 -3.375 13.375 C-4.6839572 10.25302522 -4.6839572 10.25302522 -7.375 8.375 C-11.53945405 7.83181034 -12.78372474 7.75260499 -15.75 10.875 Z M-16.375 22.375 C-16.705 23.365 -17.035 24.355 -17.375 25.375 C-11.01497122 27.82688219 -11.01497122 27.82688219 -4.375 27.8125 C-1.95334122 26.30714686 -1.95334122 26.30714686 -0.375 22.375 C-5.655 22.375 -10.935 22.375 -16.375 22.375 Z " fill="#E3E8F2" transform="translate(678.375,45.625)"/>
<path d="M0 0 C3.8047438 3.28917817 5.97560573 7.13176556 7.27734375 11.96875 C7.42097107 14.65770316 7.36322451 17.27209403 7.27734375 19.96875 C3.40280198 20.1666505 -0.47229245 20.3502209 -4.34765625 20.53125 C-5.44207031 20.58732422 -6.53648437 20.64339844 -7.6640625 20.70117188 C-8.72753906 20.74951172 -9.79101562 20.79785156 -10.88671875 20.84765625 C-11.8607666 20.8947876 -12.83481445 20.94191895 -13.83837891 20.99047852 C-16.89765432 20.96743166 -19.72255635 20.54659025 -22.72265625 19.96875 C-22.72265625 20.62875 -22.72265625 21.28875 -22.72265625 21.96875 C-22.06265625 21.96875 -21.40265625 21.96875 -20.72265625 21.96875 C-20.72265625 22.62875 -20.72265625 23.28875 -20.72265625 23.96875 C-18.97358966 24.16476608 -17.22333779 24.35022403 -15.47265625 24.53125 C-14.498125 24.63566406 -13.52359375 24.74007812 -12.51953125 24.84765625 C-9.92269162 24.96008925 -8.11414925 24.97251885 -5.72265625 23.96875 C-5.39265625 22.97875 -5.06265625 21.98875 -4.72265625 20.96875 C-0.94720237 22.05943668 1.74777847 22.8770591 4.27734375 25.96875 C2.77108101 29.80287335 0.68466174 31.69720467 -2.72265625 33.96875 C-9.42582858 36.5468932 -15.67748118 36.98380836 -22.47265625 34.71875 C-28.80384363 31.3096491 -32.49417512 27.855705 -34.72265625 20.96875 C-35.85893623 14.43514013 -34.72241188 9.46836188 -31.203125 3.87890625 C-23.62488937 -5.89881729 -9.70693607 -6.34166547 0 0 Z M-21.72265625 10.96875 C-18.31126622 12.06526823 -15.51610044 11.91090473 -11.97265625 11.53125 C-10.9878125 11.42941406 -10.00296875 11.32757813 -8.98828125 11.22265625 C-8.240625 11.13886719 -7.49296875 11.05507813 -6.72265625 10.96875 C-7.39800142 7.93029763 -7.39800142 7.93029763 -9.47265625 6.78125 C-15.43752243 4.62727055 -17.65063535 6.31501183 -21.72265625 10.96875 Z " fill="#DDE3EE" transform="translate(448.72265625,48.03125)"/>
<path d="M0 0 C0 0.66 0 1.32 0 2 C0.66 2 1.32 2 2 2 C5.90383004 8.80022006 6.11980124 11.19801236 7 20 C-2.57 20.33 -12.14 20.66 -22 21 C-15.78902811 25.14064792 -14.46046837 25.602766 -7.6875 24.6875 C-7.130625 24.460625 -6.57375 24.23375 -6 24 C-5.67 23.01 -5.34 22.02 -5 21 C-1.5625 21.8125 -1.5625 21.8125 2 23 C2.495 24.485 2.495 24.485 3 26 C3.66 26.33 4.32 26.66 5 27 C1.82768491 31.75847264 -1.57770718 34.35394682 -7 36 C-13.43345131 36.85606409 -19.48323351 36.74308498 -25.1796875 33.40625 C-29.69529352 29.91779899 -34.03953307 25.79751726 -35 20 C-35.52875581 12.99398553 -33.71375316 8.47542124 -29.75 2.75 C-21.26839137 -5.73160863 -9.80998724 -5.70762894 0 0 Z M-22 10 C-22 10.66 -22 11.32 -22 12 C-17.05 11.67 -12.1 11.34 -7 11 C-7 10.01 -7 9.02 -7 8 C-13.36074979 5.09222867 -16.81791267 4.96597231 -22 10 Z " fill="#E1E7F1" transform="translate(320,48)"/>
<path d="M0 0 C1.59776224 1.59776224 1.20233252 3.33878298 1.28125 5.55078125 C1.31863281 6.47697266 1.35601563 7.40316406 1.39453125 8.35742188 C1.42933594 9.33259766 1.46414063 10.30777344 1.5 11.3125 C1.5690948 13.22540229 1.64187466 15.13817585 1.71875 17.05078125 C1.74904297 17.90325439 1.77933594 18.75572754 1.81054688 19.6340332 C1.98919055 21.86500727 2.38711205 23.85210067 3 26 C3.60328125 25.21753906 4.2065625 24.43507813 4.828125 23.62890625 C6.02695312 22.11103516 6.02695312 22.11103516 7.25 20.5625 C8.03890625 19.55316406 8.8278125 18.54382813 9.640625 17.50390625 C12.75405743 14.19975031 12.75405743 14.19975031 16 14 C17.754132 14.08239105 19.50611925 14.23098781 21.25 14.4375 C22.58804688 14.59025391 22.58804688 14.59025391 23.953125 14.74609375 C24.62859375 14.82988281 25.3040625 14.91367187 26 15 C25.14700232 16.14670384 24.29250133 17.29228934 23.4375 18.4375 C22.89996094 19.16453125 22.36242187 19.8915625 21.80859375 20.640625 C20.57537388 22.24940427 19.29373982 23.821929 17.97265625 25.359375 C17.32167969 26.12765625 16.67070313 26.8959375 16 27.6875 C15.38125 28.39261719 14.7625 29.09773438 14.125 29.82421875 C12.71543368 31.9749628 12.71543368 31.9749628 13.56640625 34.453125 C15.13703096 37.24344465 16.89257363 39.5986874 18.9375 42.0625 C20.29319627 43.70707361 21.64745131 45.35283675 23 47 C23.59941406 47.69996094 24.19882812 48.39992187 24.81640625 49.12109375 C25.20699219 49.74113281 25.59757813 50.36117187 26 51 C25.67 51.99 25.34 52.98 25 54 C14.94832367 54.62389715 14.94832367 54.62389715 11.625 52.4375 C11.08875 51.633125 10.5525 50.82875 10 50 C9.13023245 48.74635356 8.25491444 47.49654546 7.375 46.25 C6.76785156 45.32960938 6.76785156 45.32960938 6.1484375 44.390625 C5.76945313 43.93171875 5.39046875 43.4728125 5 43 C4.34 43 3.68 43 3 43 C2.34 46.3 1.68 49.6 1 53 C-2.50147041 54.1671568 -5.32670036 54.13357453 -9 54 C-9.66 53.67 -10.32 53.34 -11 53 C-11 35.84 -11 18.68 -11 1 C-3.72340426 -0.21276596 -3.72340426 -0.21276596 0 0 Z " fill="#DCE3F0" transform="translate(620,30)"/>
<path d="M0 0 C6.20512112 6.50060308 7 10.71468867 7 20 C-2.57 20.33 -12.14 20.66 -22 21 C-18.91374617 24.08625383 -18.56526744 24.39899847 -14.5625 24.75 C-13.41974609 24.86601563 -13.41974609 24.86601563 -12.25390625 24.984375 C-9.92089826 25.00054837 -8.17278562 24.85956354 -6 24 C-5.67 23.01 -5.34 22.02 -5 21 C-3.02 21.66 -1.04 22.32 1 23 C1 23.66 1 24.32 1 25 C1.99 25.33 2.98 25.66 4 26 C2.12988126 30.76030224 -1.13077631 33.13059363 -5.6875 35.25 C-12.61186022 36.81777967 -18.90709501 36.94302211 -25.1796875 33.32421875 C-30.22277902 29.655532 -33.70421733 25.31503936 -34.8828125 19.109375 C-35.24484973 12.5927049 -33.17081435 6.98180603 -29 2 C-20.45874151 -4.9883024 -9.54974731 -5.68921116 0 0 Z M-21 9 C-21 9.99 -21 10.98 -21 12 C-16.38 12 -11.76 12 -7 12 C-7 10.68 -7 9.36 -7 8 C-7.99 8 -8.98 8 -10 8 C-10 7.34 -10 6.68 -10 6 C-16.17062816 5.5913064 -16.17062816 5.5913064 -21 9 Z " fill="#DDE3EE" transform="translate(185,48)"/>
<path d="M0 0 C2.125 2.4375 2.125 2.4375 3.125 4.4375 C1.805 5.4275 0.485 6.4175 -0.875 7.4375 C-1.431875 7.14875 -1.98875 6.86 -2.5625 6.5625 C-4.95994645 5.3961747 -7.39096939 4.4035119 -9.875 3.4375 C-9.565625 4.736875 -9.565625 4.736875 -9.25 6.0625 C-8.80618226 10.05685963 -9.13461877 11.81170577 -10.875 15.4375 C-12.56346027 17.47383399 -14.33660446 19.40536718 -16.140625 21.33984375 C-18.32166394 23.97772192 -19.54957395 26.68856849 -20.7578125 29.87109375 C-21.875 31.4375 -21.875 31.4375 -26.875 32.4375 C-26.875 36.0675 -26.875 39.6975 -26.875 43.4375 C-25.225 43.4375 -23.575 43.4375 -21.875 43.4375 C-21.52308594 44.15035156 -21.17117187 44.86320312 -20.80859375 45.59765625 C-17.902195 51.23591805 -15.06141967 55.57954367 -10.421875 59.890625 C-7.15321506 63.15928494 -5.94019601 66.2639718 -5.6875 70.8125 C-5.749375 71.67875 -5.81125 72.545 -5.875 73.4375 C-2.245 73.4375 1.385 73.4375 5.125 73.4375 C4.795 71.7875 4.465 70.1375 4.125 68.4375 C7.99223631 67.17167781 11.85651262 67.3256235 15.875 67.375 C16.57238281 67.37951172 17.26976562 67.38402344 17.98828125 67.38867188 C19.70055803 67.4003998 21.41279033 67.41833347 23.125 67.4375 C23.125 69.4175 23.125 71.3975 23.125 73.4375 C24.115 73.4375 25.105 73.4375 26.125 73.4375 C26.125 75.4175 26.125 77.3975 26.125 79.4375 C23.485 79.4375 20.845 79.4375 18.125 79.4375 C17.465 77.7875 16.805 76.1375 16.125 74.4375 C14.805 74.4375 13.485 74.4375 12.125 74.4375 C11.980625 75.076875 11.83625 75.71625 11.6875 76.375 C11.125 78.4375 11.125 78.4375 10.125 79.4375 C6.842372 79.74300774 3.54510593 79.7158184 0.25 79.75 C-0.67425781 79.77900391 -1.59851562 79.80800781 -2.55078125 79.83789062 C-3.43894531 79.84626953 -4.32710937 79.85464844 -5.2421875 79.86328125 C-6.05800293 79.87786377 -6.87381836 79.89244629 -7.71435547 79.9074707 C-9.875 79.4375 -9.875 79.4375 -11.62939453 77.62573242 C-13.32608887 74.64504418 -13.45939232 71.82173394 -13.875 68.4375 C-14.56985264 65.65526622 -14.56985264 65.65526622 -15.875 63.4375 C-16.80119141 62.99470703 -16.80119141 62.99470703 -17.74609375 62.54296875 C-20.26922304 61.23279336 -21.43059517 59.83026404 -23.125 57.5625 C-23.64578125 56.88445312 -24.1665625 56.20640625 -24.703125 55.5078125 C-25.875 53.4375 -25.875 53.4375 -25.875 49.4375 C-27.525 49.4375 -29.175 49.4375 -30.875 49.4375 C-31.535 48.1175 -32.195 46.7975 -32.875 45.4375 C-33.535 45.4375 -34.195 45.4375 -34.875 45.4375 C-34.78808261 42.66513506 -34.68122639 39.89602922 -34.5625 37.125 C-34.53994141 36.33931641 -34.51738281 35.55363281 -34.49414062 34.74414062 C-34.45869141 33.98681641 -34.42324219 33.22949219 -34.38671875 32.44921875 C-34.36053467 31.75272217 -34.33435059 31.05622559 -34.30737305 30.33862305 C-33.75037254 27.8895192 -32.84696109 26.95744912 -30.875 25.4375 C-28.1875 25.25 -28.1875 25.25 -25.875 25.4375 C-25.771875 24.715625 -25.66875 23.99375 -25.5625 23.25 C-24.49825803 18.89628287 -23.04540532 16.19748087 -19.24609375 13.73046875 C-16.50132763 11.5936768 -16.50132763 11.5936768 -16.67578125 8.0546875 C-16.84464844 6.81976563 -17.01351563 5.58484375 -17.1875 4.3125 C-17.48426414 2.02860322 -17.7281093 -0.2640926 -17.875 -2.5625 C-12.16011104 -8.27738896 -5.1915578 -4.62725804 0 0 Z " fill="#D8E0EC" transform="translate(45.875,24.5625)"/>
<path d="M0 0 C0.495 0.33 0.99 0.66 1.5 1 C1.5 1.66 1.5 2.32 1.5 3 C2.16 3 2.82 3 3.5 3 C7.9462774 10.11755868 8.04889613 16.11035779 7.875 24.375 C7.87371094 25.56222656 7.87242187 26.74945313 7.87109375 27.97265625 C7.78134001 36.71865999 7.78134001 36.71865999 5.5 39 C3.1171875 39.1953125 3.1171875 39.1953125 0.375 39.125 C-0.53507812 39.10695312 -1.44515625 39.08890625 -2.3828125 39.0703125 C-3.08148438 39.04710937 -3.78015625 39.02390625 -4.5 39 C-5.5312906 35.90612819 -5.57000079 33.92066145 -5.5 30.6875 C-5.4321271 23.75597993 -5.92804064 16.90436659 -6.5 10 C-11.15052872 9.73067479 -11.15052872 9.73067479 -15.5 11 C-17.78301819 19.83612594 -17.74448147 28.94060349 -17.5 38 C-21.38348484 39.29449495 -24.40697336 39.13203312 -28.5 39 C-30.41322957 37.08677043 -29.63061012 33.64617522 -29.6328125 31.11328125 C-29.63376923 30.4186528 -29.63472595 29.72402435 -29.63571167 29.00834656 C-29.63639377 27.53298859 -29.6345374 26.05762764 -29.63037109 24.58227539 C-29.62506338 22.33928528 -29.63029399 20.09649913 -29.63671875 17.85351562 C-29.63605718 16.41927039 -29.6347744 14.98502529 -29.6328125 13.55078125 C-29.63168457 12.24794189 -29.63055664 10.94510254 -29.62939453 9.6027832 C-29.51095305 6.30497006 -29.12915107 3.23478618 -28.5 0 C-23.83333333 0 -19.16666667 0 -14.5 0 C-13.943125 -0.165 -13.38625 -0.33 -12.8125 -0.5 C-8.48388709 -1.43591631 -4.14194058 -1.65677623 0 0 Z " fill="#E6EBF2" transform="translate(362.5,45)"/>
<path d="M0 0 C1.53125 1.16796875 1.53125 1.16796875 2.53125 4.16796875 C1.59375 6.35546875 1.59375 6.35546875 0.53125 8.16796875 C-0.12875 8.16796875 -0.78875 8.16796875 -1.46875 8.16796875 C-1.46875 8.82796875 -1.46875 9.48796875 -1.46875 10.16796875 C-4.93816546 9.70974407 -8.14270049 9.27665192 -11.46875 8.16796875 C-14.10679589 8.5619421 -14.10679589 8.5619421 -16.46875 9.16796875 C-11.00172041 11.36226364 -11.00172041 11.36226364 -5.28125 12.60546875 C-1.70208301 13.32130215 -0.03631102 14.60040773 2.53125 17.16796875 C4.57094799 20.85885082 5.04309637 23.98789002 4.53125 28.16796875 C2.44572644 32.42243682 0.26947105 35.06963964 -4.29296875 36.69140625 C-13.5127606 38.71082206 -20.54389381 37.0771717 -28.46875 32.16796875 C-28.46875 27.87355077 -27.93427067 26.54664522 -25.46875 23.16796875 C-24.47875 22.83796875 -23.48875 22.50796875 -22.46875 22.16796875 C-22.13875 23.15796875 -21.80875 24.14796875 -21.46875 25.16796875 C-20.746875 25.14734375 -20.025 25.12671875 -19.28125 25.10546875 C-16.54118661 25.16635905 -14.14541933 25.61890837 -11.46875 26.16796875 C-10.14875 26.16796875 -8.82875 26.16796875 -7.46875 26.16796875 C-8.33437302 23.88564343 -8.33437302 23.88564343 -11.09375 23.10546875 C-14.54958902 22.14551347 -17.91084512 21.59491734 -21.46875 21.16796875 C-21.46875 20.50796875 -21.46875 19.84796875 -21.46875 19.16796875 C-22.231875 18.94109375 -22.995 18.71421875 -23.78125 18.48046875 C-27.15314721 16.83372825 -28.01579383 15.60918073 -29.46875 12.16796875 C-29.96008719 8.23727126 -29.87042648 5.97132172 -28.09375 2.41796875 C-20.19115958 -4.35568018 -8.92888825 -4.62388856 0 0 Z " fill="#E2E8F1" transform="translate(405.46875,46.83203125)"/>
<path d="M0 0 C12.43946188 -1.22690583 12.43946188 -1.22690583 16.265625 1.78125 C17.72868059 3.7982781 18.9433191 5.74574741 20 8 C20.99 7.67 21.98 7.34 23 7 C23.33 6.34 23.66 5.68 24 5 C24.66 5 25.32 5 26 5 C26.66 3.35 27.32 1.7 28 0 C32.62 0 37.24 0 42 0 C39.74129407 4.51741186 36.91370221 8.22986786 33.875 12.24609375 C32.09132254 14.86587002 30.75588765 16.921747 30 20 C30.84447952 22.2372732 30.84447952 22.2372732 32.5 24.25 C33.05945313 25.01699219 33.61890625 25.78398438 34.1953125 26.57421875 C34.79085937 27.37472656 35.38640625 28.17523438 36 29 C37.13437374 30.6812131 38.25986942 32.36846191 39.375 34.0625 C39.87773437 34.81660156 40.38046875 35.57070312 40.8984375 36.34765625 C41.26195312 36.89292969 41.62546875 37.43820313 42 38 C31.08182683 39.57706946 31.08182683 39.57706946 27 38 C25.0033241 35.49623181 23.46352745 32.8428697 22 30 C18.65751891 31.36895795 17.58562393 32.46475281 16.0625 35.6875 C14.8359375 37.578125 14.8359375 37.578125 13 39 C8.55821255 39.32421806 4.37563775 38.76237319 0 38 C0 37.34 0 36.68 0 36 C0.66 36 1.32 36 2 36 C2.22429687 35.48953125 2.44859375 34.9790625 2.6796875 34.453125 C4.53605381 31.00401837 6.82730426 27.91657227 9.125 24.75 C9.82689453 23.77546875 9.82689453 23.77546875 10.54296875 22.78125 C11.69274282 21.18564517 12.84602566 19.59256975 14 18 C13.34 18 12.68 18 12 18 C10.81640625 16.35546875 10.81640625 16.35546875 9.5625 14.1875 C7.93171251 11.38090962 6.29165187 9.27952673 4 7 C2.54321123 4.72468109 1.29838196 2.37290496 0 0 Z " fill="#DEE4F0" transform="translate(193,45)"/>
<path d="M0 0 C4.07971105 2.07694381 6.33117192 3.7548705 8 8 C8.1953125 10.359375 8.1953125 10.359375 8.125 12.75 C8.10695313 13.54921875 8.08890625 14.3484375 8.0703125 15.171875 C8.04710938 15.77515625 8.02390625 16.3784375 8 17 C9.98 17 11.96 17 14 17 C14 25.25 14 33.5 14 42 C1.79 42 -10.42 42 -23 42 C-23 33.75 -23 25.5 -23 17 C-21.02 17 -19.04 17 -17 17 C-17.05800781 16.34773438 -17.11601563 15.69546875 -17.17578125 15.0234375 C-17.59037238 6.99221498 -17.59037238 6.99221498 -14.6875 3.4375 C-10.28416658 -0.55622101 -5.71094113 -0.71143123 0 0 Z M-10 8 C-10.57993699 10.19454681 -10.57993699 10.19454681 -10.6875 12.625 C-10.790625 14.06875 -10.89375 15.5125 -11 17 C-7.04 17 -3.08 17 1 17 C2.43481483 12.290658 2.43481483 12.290658 0.8125 9.25 C-0.78374658 6.88877615 -0.78374658 6.88877615 -3.0625 6.1875 C-6.52179445 5.85272957 -6.84588079 5.89725386 -10 8 Z M-17 23 C-17 27.29 -17 31.58 -17 36 C-9.08 36 -1.16 36 7 36 C7 31.71 7 27.42 7 23 C-0.92 23 -8.84 23 -17 23 Z " fill="#CBD6E5" transform="translate(100,62)"/>
<path d="M0 0 C4.10402071 2.34394585 6.89944991 5.6778567 9.6875 9.4375 C8.6875 11.4375 8.6875 11.4375 6.40234375 12.2890625 C5.48582031 12.54429688 4.56929687 12.79953125 3.625 13.0625 C2.70589844 13.32289062 1.78679688 13.58328125 0.83984375 13.8515625 C0.12957031 14.04492188 -0.58070313 14.23828125 -1.3125 14.4375 C-1.8075 13.7775 -2.3025 13.1175 -2.8125 12.4375 C-5.87073767 9.99090987 -7.58632217 9.83444461 -11.40625 10.0625 C-13.51162072 10.36469931 -13.51162072 10.36469931 -15.8125 11.9375 C-17.92834485 15.46390809 -18.11980018 18.42571239 -17.3125 22.4375 C-15.26944308 25.50208538 -13.87170198 26.25903128 -10.375 27.375 C-6.68432319 27.45031993 -5.33655176 26.45353451 -2.3125 24.4375 C1.31096193 23.13677008 2.38663838 23.30693741 6 24.875 C6.886875 25.390625 7.77375 25.90625 8.6875 26.4375 C7.51494291 29.77477786 6.49881596 32.21187487 3.6875 34.4375 C3.0275 34.4375 2.3675 34.4375 1.6875 34.4375 C1.6875 35.0975 1.6875 35.7575 1.6875 36.4375 C-5.07673466 38.79027727 -11.79033136 39.76662024 -18.625 37.1875 C-19.9553125 36.32125 -19.9553125 36.32125 -21.3125 35.4375 C-22.17875 34.880625 -23.045 34.32375 -23.9375 33.75 C-28.69236831 29.12025981 -30.55102112 24.43963705 -30.8125 17.8125 C-30.55813512 11.46214925 -28.05658435 8.41106913 -23.9375 3.75 C-17.06334861 -2.30580004 -8.51832626 -3.79318943 0 0 Z " fill="#DDE4EE" transform="translate(594.3125,45.5625)"/>
<path d="M0 0 C0.91007812 0.10183594 1.82015625 0.20367187 2.7578125 0.30859375 C3.45648438 0.39238281 4.15515625 0.47617187 4.875 0.5625 C5.205 3.5325 5.535 6.5025 5.875 9.5625 C6.844375 9.68625 7.81375 9.81 8.8125 9.9375 C9.823125 10.14375 10.83375 10.35 11.875 10.5625 C13.3533226 13.51914519 12.93532783 16.30479737 12.875 19.5625 C10.565 20.2225 8.255 20.8825 5.875 21.5625 C5.545 27.5025 5.215 33.4425 4.875 39.5625 C6.855 39.5625 8.835 39.5625 10.875 39.5625 C12.875 41.5625 12.875 41.5625 13.10546875 43.47265625 C12.98611111 49.45138889 12.98611111 49.45138889 11.875 50.5625 C6.23696185 51.08274816 1.14958971 50.60774907 -4.125 48.5625 C-6.35035794 45.22446309 -6.41478404 43.93430289 -6.5390625 40.01953125 C-6.57773437 38.94638672 -6.61640625 37.87324219 -6.65625 36.76757812 C-6.6871875 35.64802734 -6.718125 34.52847656 -6.75 33.375 C-6.78867187 32.24384766 -6.82734375 31.11269531 -6.8671875 29.94726562 C-6.96152533 27.1525075 -7.04711652 24.35775722 -7.125 21.5625 C-8.445 21.2325 -9.765 20.9025 -11.125 20.5625 C-11.125 17.2625 -11.125 13.9625 -11.125 10.5625 C-9.805 10.2325 -8.485 9.9025 -7.125 9.5625 C-7.125 6.5925 -7.125 3.6225 -7.125 0.5625 C-4.50184968 -0.74907516 -2.89466564 -0.33399988 0 0 Z " fill="#D9E0EC" transform="translate(471.125,33.4375)"/>
<path d="M0 0 C0.33 0.66 0.66 1.32 1 2 C6.445 1.01 6.445 1.01 12 0 C13.11445498 2.22890995 13.16480286 3.53055106 13.1875 6 C13.20167969 6.70125 13.21585938 7.4025 13.23046875 8.125 C13 10 13 10 11 12 C8.96605871 12.45763679 6.93935724 12.75847215 4.875 13.046875 C2.74727891 13.89260258 2.74727891 13.89260258 1.7890625 16.4609375 C0.78865971 20.94789258 0.54068719 25.29098774 0.375 29.875 C0.31699219 31.19371094 0.31699219 31.19371094 0.2578125 32.5390625 C0.16418966 34.69238793 0.08103541 36.84616414 0 39 C-5.445 39.495 -5.445 39.495 -11 40 C-12.22699775 36.31900675 -12.14319812 32.91833308 -12.1328125 29.0859375 C-12.13376923 28.31569244 -12.13472595 27.54544739 -12.13571167 26.75186157 C-12.13639151 25.12624022 -12.13455088 23.50061613 -12.13037109 21.875 C-12.12500546 19.37754279 -12.13033015 16.88026423 -12.13671875 14.3828125 C-12.13605822 12.8046871 -12.13477758 11.22656181 -12.1328125 9.6484375 C-12.13483673 8.89742767 -12.13686096 8.14641785 -12.13894653 7.37265015 C-12.11496122 2.11496122 -12.11496122 2.11496122 -11 1 C-9.52738281 0.76657144 -8.04598558 0.58703535 -6.5625 0.4375 C-5.75941406 0.35371094 -4.95632813 0.26992188 -4.12890625 0.18359375 C-2 0 -2 0 0 0 Z " fill="#F2F6FA" transform="translate(707,44)"/>
<path d="M0 0 C0.33 3.63 0.66 7.26 1 11 C-0.0725 11.2475 -1.145 11.495 -2.25 11.75 C-6.06478629 13.02159543 -7.63566239 13.81723784 -10 17 C-11.2266771 21.51755568 -11.3246422 26.16062538 -11.5625 30.8125 C-11.60568359 31.60076172 -11.64886719 32.38902344 -11.69335938 33.20117188 C-11.79878321 35.13394215 -11.89983094 37.06695026 -12 39 C-16.66671349 40.00001003 -19.03301135 39.82783144 -24 39 C-23.67 26.46 -23.34 13.92 -23 1 C-12 1 -12 1 -9 2 C-2.6 0 -2.6 0 0 0 Z " fill="#E0E6F1" transform="translate(513,44)"/>
<path d="M0 0 C0.99 0 1.98 0 3 0 C3 7.92 3 15.84 3 24 C-8.55 24 -20.1 24 -32 24 C-31.67 22.35 -31.34 20.7 -31 19 C-27.61608422 17.94872072 -24.66796575 17.95912402 -21.140625 18.12109375 C-19.46806641 18.19360352 -19.46806641 18.19360352 -17.76171875 18.26757812 C-16.60285156 18.32365234 -15.44398437 18.37972656 -14.25 18.4375 C-13.07566406 18.48970703 -11.90132812 18.54191406 -10.69140625 18.59570312 C-7.79403325 18.72526045 -4.89698065 18.8619474 -2 19 C-2 13.39 -2 7.78 -2 2 C-1.34 2 -0.68 2 0 2 C0 1.34 0 0.68 0 0 Z " fill="#FAFEFD" transform="translate(110,80)"/>
<path d="M0 0 C0.515625 0.680625 1.03125 1.36125 1.5625 2.0625 C3.48763235 4.38253129 5.3920807 6.36824431 7.5625 8.4375 C11.50916417 12.35028722 13.87108348 15.67950258 14.1875 21.375 C14.0946875 22.674375 14.0946875 22.674375 14 24 C13.34 24.33 12.68 24.66 12 25 C10.86649466 27.01669827 10.86649466 27.01669827 10 29 C7.3206867 27.019638 6.99979713 25.99878278 6.4375 22.625 C6.293125 21.42875 6.14875 20.2325 6 19 C5.30514736 16.21776622 5.30514736 16.21776622 4 14 C3.38382813 13.70609375 2.76765625 13.4121875 2.1328125 13.109375 C-0.41056218 11.78644751 -1.59895366 10.34581113 -3.3125 8.0625 C-4.11107422 7.02802734 -4.11107422 7.02802734 -4.92578125 5.97265625 C-5.28027344 5.32167969 -5.63476562 4.67070313 -6 4 C-5.67 3.01 -5.34 2.02 -5 1 C-5 1.66 -5 2.32 -5 3 C-3.68 3 -2.36 3 -1 3 C-0.67 2.01 -0.34 1.02 0 0 Z " fill="#D2D9E7" transform="translate(26,74)"/>
<path d="M0 0 C1.50433594 0.01353516 1.50433594 0.01353516 3.0390625 0.02734375 C3.80992187 0.03894531 4.58078125 0.05054688 5.375 0.0625 C6.89848035 3.10946071 6.51711557 6.28330061 6.5078125 9.625 C6.50924759 10.74563843 6.50924759 10.74563843 6.51071167 11.88891602 C6.51139249 13.46923914 6.50954503 15.04956506 6.50537109 16.62988281 C6.50002142 19.0527981 6.50531935 21.475528 6.51171875 23.8984375 C6.51105795 25.43229208 6.50977675 26.96614654 6.5078125 28.5 C6.50983673 29.22711182 6.51186096 29.95422363 6.51394653 30.70336914 C6.4899618 35.83257639 6.4899618 35.83257639 5.375 38.0625 C1.63721781 39.20805496 -1.16180747 38.98082364 -4.9375 38.125 C-5.82050781 37.93035156 -6.70351563 37.73570313 -7.61328125 37.53515625 C-8.60908203 37.30119141 -8.60908203 37.30119141 -9.625 37.0625 C-8.25 35.5625 -8.25 35.5625 -6.625 34.0625 C-5.965 34.0625 -5.305 34.0625 -4.625 34.0625 C-4.625 35.0525 -4.625 36.0425 -4.625 37.0625 C-1.655 37.0625 1.315 37.0625 4.375 37.0625 C4.375 25.1825 4.375 13.3025 4.375 1.0625 C1.405 1.0625 -1.565 1.0625 -4.625 1.0625 C-4.625 2.0525 -4.625 3.0425 -4.625 4.0625 C-5.285 4.0625 -5.945 4.0625 -6.625 4.0625 C-6.955 3.0725 -7.285 2.0825 -7.625 1.0625 C-4.98041621 -0.25979189 -2.94738699 -0.03427194 0 0 Z " fill="#5B76AA" transform="translate(551.625,44.9375)"/>
<path d="M0 0 C1.98 0 3.96 0 6 0 C5.34 0.66 4.68 1.32 4 2 C3.67 2 3.34 2 3 2 C2.67 3.65 2.34 5.3 2 7 C3.32 7.66 4.64 8.32 6 9 C6 12.3 6 15.6 6 19 C4.02 19.99 4.02 19.99 2 21 C1.34 22.32 0.68 23.64 0 25 C0 16.75 0 8.5 0 0 Z " fill="#DDE6F3" transform="translate(77,79)"/>
<path d="M0 0 C0.33 0 0.66 0 1 0 C1 10.23 1 20.46 1 31 C3.97 31 6.94 31 10 31 C9.67 24.07 9.34 17.14 9 10 C9.99 9.67 10.98 9.34 12 9 C11.67 16.59 11.34 24.18 11 32 C5.555 32.495 5.555 32.495 0 33 C-1.08649093 29.74052722 -1.12928509 27.33489025 -1.1328125 23.90625 C-1.13410156 22.71128906 -1.13539063 21.51632813 -1.13671875 20.28515625 C-1.13091797 18.41150391 -1.13091797 18.41150391 -1.125 16.5 C-1.12886719 15.25089844 -1.13273438 14.00179687 -1.13671875 12.71484375 C-1.13542969 11.51988281 -1.13414062 10.32492188 -1.1328125 9.09375 C-1.13168457 7.99740234 -1.13055664 6.90105469 -1.12939453 5.77148438 C-1 3 -1 3 0 0 Z " fill="#98AFD3" transform="translate(696,51)"/>
<path d="M0 0 C0.66 0.33 1.32 0.66 2 1 C3.51586726 6.75450247 3.18382974 12.84088109 3.1875 18.75 C3.19974609 19.80316406 3.21199219 20.85632813 3.22460938 21.94140625 C3.22750977 23.44767578 3.22750977 23.44767578 3.23046875 24.984375 C3.23457764 25.89928711 3.23868652 26.81419922 3.24291992 27.75683594 C3 30 3 30 1 32 C-1.3828125 32.1953125 -1.3828125 32.1953125 -4.125 32.125 C-5.03507812 32.10695312 -5.94515625 32.08890625 -6.8828125 32.0703125 C-7.58148438 32.04710937 -8.28015625 32.02390625 -9 32 C-10.0312906 28.90612819 -10.07000079 26.92066145 -10 23.6875 C-9.9321271 16.75597993 -10.42804064 9.90436659 -11 3 C-9 4 -9 4 -8.38110352 5.73730469 C-7.95475722 8.26861631 -7.88741769 10.63584214 -7.90234375 13.203125 C-7.90556641 14.1828125 -7.90878906 15.1625 -7.91210938 16.171875 C-7.92048828 17.18765625 -7.92886719 18.2034375 -7.9375 19.25 C-7.94201172 20.28125 -7.94652344 21.3125 -7.95117188 22.375 C-7.96293912 24.91672573 -7.97937989 27.45833319 -8 30 C-5.03 30 -2.06 30 1 30 C0.67 20.1 0.34 10.2 0 0 Z " fill="#738ACE" transform="translate(367,52)"/>
<path d="M0 0 C0.66 0.66 1.32 1.32 2 2 C4.66242821 2.46290221 4.66242821 2.46290221 7.625 2.625 C9.12933594 2.73714844 9.12933594 2.73714844 10.6640625 2.8515625 C11.43492188 2.90054688 12.20578125 2.94953125 13 3 C13.5625 4.9375 13.5625 4.9375 14 7 C13 8 13 8 9.62109375 8.09765625 C8.22652923 8.09098369 6.83198257 8.07902532 5.4375 8.0625 C4.37112305 8.05573242 4.37112305 8.05573242 3.28320312 8.04882812 C1.52209987 8.03700864 -0.23896036 8.01907263 -2 8 C-1.34 5.36 -0.68 2.72 0 0 Z " fill="#F7FCFC" transform="translate(38,96)"/>
<path d="M0 0 C2.2421875 -0.36328125 2.2421875 -0.36328125 4.875 -0.3125 C6.17050781 -0.30669922 6.17050781 -0.30669922 7.4921875 -0.30078125 C10.0852226 0.0102214 11.75999753 0.69246367 14 2 C12 3 12 3 9.75 2.5 C6.5717402 1.92213458 4.14100338 2.34258069 1 3 C-0.34591808 7.03775425 -0.57366831 10.77780122 0 15 C1.73010388 17.48231727 1.73010388 17.48231727 4 19 C4.66 19.66 5.32 20.32 6 21 C4.02 21 2.04 21 0 21 C-1.88646933 17.00248167 -2.27024973 13.77931569 -2.25 9.375 C-2.25515625 8.24835937 -2.2603125 7.12171875 -2.265625 5.9609375 C-2 3 -2 3 0 0 Z " fill="#808DB9" transform="translate(529,53)"/>
<path d="M0 0 C1.9375 0.6875 1.9375 0.6875 4 2 C4.33 3.65 4.66 5.3 5 7 C-0.94 7 -6.88 7 -13 7 C-12 3 -12 3 -9.9375 1.75 C-9.298125 1.5025 -8.65875 1.255 -8 1 C-8.66 2.32 -9.32 3.64 -10 5 C-5.71 5 -1.42 5 3 5 C2.01 3.35 1.02 1.7 0 0 Z " fill="#5167A1" transform="translate(672,54)"/>
<path d="M0 0 C2.7385669 1.0041412 3.81209575 1.66177234 5.25 4.25 C6.55480002 9.03426675 6.6386882 11.81386478 4.25 16.25 C1.1 20.1 1.1 20.1 -2 21 C-2.99 20.67 -3.98 20.34 -5 20 C-4.34 20 -3.68 20 -3 20 C-3 19.34 -3 18.68 -3 18 C-1.824375 17.2265625 -1.824375 17.2265625 -0.625 16.4375 C2.99430198 13.07671959 3.31892667 9.75734807 4 5 C3.34 5 2.68 5 2 5 C1.34 3.35 0.68 1.7 0 0 Z " fill="#8F9FCA" transform="translate(404,62)"/>
<path d="M0 0 C2.31 0 4.62 0 7 0 C7 1.98 7 3.96 7 6 C3.7 6.33 0.4 6.66 -3 7 C-2.67 6.01 -2.34 5.02 -2 4 C-1.34 4 -0.68 4 0 4 C0 2.68 0 1.36 0 0 Z " fill="#A8B7DC" transform="translate(52,25)"/>
<path d="M0 0 C0.8971875 0.5259375 0.8971875 0.5259375 1.8125 1.0625 C1.8125 2.7125 1.8125 4.3625 1.8125 6.0625 C-1.56567425 6.90704356 -3.86215243 7.17094919 -7.1875 6.0625 C-6.375 3.125 -6.375 3.125 -5.1875 0.0625 C-2.1875 -0.9375 -2.1875 -0.9375 0 0 Z " fill="#B4C0DF" transform="translate(68.1875,24.9375)"/>
<path d="M0 0 C0.66 0 1.32 0 2 0 C3.10844919 3.32534757 2.84454356 5.62182575 2 9 C0.35 9 -1.3 9 -3 9 C-3.66 7.68 -4.32 6.36 -5 5 C-3.33333333 3.33333333 -1.66666667 1.66666667 0 0 Z " fill="#ACBBDE" transform="translate(98,49)"/>
<path d="M0 0 C0.66 0.33 1.32 0.66 2 1 C1.51421457 4.12290635 1.0013988 6.99580359 0 10 C-2.31 10 -4.62 10 -7 10 C-6.34 9.67 -5.68 9.34 -5 9 C-4.87625 8.236875 -4.7525 7.47375 -4.625 6.6875 C-3.86156285 3.40472026 -2.50142651 2.1786618 0 0 Z " fill="#E6ECF3" transform="translate(25,45)"/>
<path d="M0 0 C1.42944945 2.35438733 2.08661261 3.48032433 1.625 6.25 C1.41875 6.8275 1.2125 7.405 1 8 C-0.32 8.33 -1.64 8.66 -3 9 C-4.5625 7.1875 -4.5625 7.1875 -6 5 C-4.87312259 1.61936778 -3.78825335 0 0 0 Z " fill="#BBC8E1" transform="translate(95,40)"/>
<path d="M0 0 C0.99 0 1.98 0 3 0 C3 0.66 3 1.32 3 2 C3.99 2 4.98 2 6 2 C5.34 4.31 4.68 6.62 4 9 C2.02 8.34 0.04 7.68 -2 7 C-1.125 1.125 -1.125 1.125 0 0 Z " fill="#B2C5D9" transform="translate(75,27)"/>
<path d="M0 0 C1.32 1.32 2.64 2.64 4 4 C3.34 5.65 2.68 7.3 2 9 C-1 9 -1 9 -3.1875 7 C-3.785625 6.34 -4.38375 5.68 -5 5 C-3.35 3.35 -1.7 1.7 0 0 Z " fill="#BCC8E5" transform="translate(86,32)"/>
<path d="M0 0 C0.88099735 2.97818634 1.06705164 5.45292865 0.87890625 8.546875 C0.83056641 9.39121094 0.78222656 10.23554687 0.73242188 11.10546875 C0.67634766 11.97816406 0.62027344 12.85085937 0.5625 13.75 C0.51029297 14.63816406 0.45808594 15.52632812 0.40429688 16.44140625 C0.27498612 18.6279336 0.13821873 20.81401768 0 23 C-3.63 23.33 -7.26 23.66 -11 24 C-11 23.01 -11 22.02 -11 21 C-7.7 21.33 -4.4 21.66 -1 22 C-1.33 15.07 -1.66 8.14 -2 1 C-1.34 0.67 -0.68 0.34 0 0 Z " fill="#6A7FB1" transform="translate(707,60)"/>
<path d="M0 0 C0.33 0 0.66 0 1 0 C1.47078471 5.22493851 0.36852575 7.57795862 -2.8125 11.6875 C-3.52019531 12.61949219 -4.22789063 13.55148438 -4.95703125 14.51171875 C-6.56321105 16.46800275 -8.1620908 18.26645158 -10 20 C-9.48878098 15.60351646 -8.63706441 12.57887312 -6 9 C-5.13375 8.34 -4.2675 7.68 -3.375 7 C-0.78106255 5.18843629 -0.78106255 5.18843629 -0.1875 2.25 C-0.125625 1.5075 -0.06375 0.765 0 0 Z " fill="#B9C4DD" transform="translate(30,31)"/>
<path d="M0 0 C0.66 0 1.32 0 2 0 C2.33 1.65 2.66 3.3 3 5 C-2.94 5 -8.88 5 -15 5 C-14.67 4.01 -14.34 3.02 -14 2 C-13.45859375 2.16371094 -12.9171875 2.32742187 -12.359375 2.49609375 C-9.59777407 3.08590587 -7.07181861 3.09609308 -4.25 3.0625 C-3.26515625 3.05347656 -2.2803125 3.04445312 -1.265625 3.03515625 C-0.51796875 3.02355469 0.2296875 3.01195312 1 3 C0.67 2.01 0.34 1.02 0 0 Z " fill="#506495" transform="translate(441,56)"/>
<path d="M0 0 C0.99 0.33 1.98 0.66 3 1 C2.67 2.32 2.34 3.64 2 5 C1.01 5 0.02 5 -1 5 C-1 9.62 -1 14.24 -1 19 C-1.99 19.33 -2.98 19.66 -4 20 C-3.91308261 17.22763506 -3.80622639 14.45852922 -3.6875 11.6875 C-3.66494141 10.90181641 -3.64238281 10.11613281 -3.61914062 9.30664062 C-3.58369141 8.54931641 -3.54824219 7.79199219 -3.51171875 7.01171875 C-3.48553467 6.31522217 -3.45935059 5.61872559 -3.43237305 4.90112305 C-2.88776232 2.50649641 -1.84170838 1.56727453 0 0 Z " fill="#C9D5E4" transform="translate(15,50)"/>
<path d="M0 0 C0.66 1.32 1.32 2.64 2 4 C-3.94 4 -9.88 4 -16 4 C-15.67 3.01 -15.34 2.02 -15 1 C-15 1.66 -15 2.32 -15 3 C-14.34 2.67 -13.68 2.34 -13 2 C-10.7927077 1.92907158 -8.58332548 1.91584975 -6.375 1.9375 C-5.18648438 1.94652344 -3.99796875 1.95554688 -2.7734375 1.96484375 C-1.85820312 1.97644531 -0.94296875 1.98804688 0 2 C0 1.34 0 0.68 0 0 Z " fill="#425496" transform="translate(313,57)"/>
<path d="M0 0 C0.66 0 1.32 0 2 0 C1.85969405 3.01657791 1.70648535 5.23841273 -0.40234375 7.51171875 C-1.88904235 8.73256066 -3.44134898 9.87246522 -5 11 C-5.33 10.01 -5.66 9.02 -6 8 C-4.85546875 5.95703125 -4.85546875 5.95703125 -3.1875 3.8125 C-2.37345703 2.73935547 -2.37345703 2.73935547 -1.54296875 1.64453125 C-1.03378906 1.10183594 -0.52460937 0.55914062 0 0 Z " fill="#BBC5EC" transform="translate(571,48)"/>
<path d="M0 0 C2.31 0.66 4.62 1.32 7 2 C7 2.66 7 3.32 7 4 C7.60328125 3.90460938 8.2065625 3.80921875 8.828125 3.7109375 C10.02695312 3.54464844 10.02695312 3.54464844 11.25 3.375 C12.03890625 3.25898437 12.8278125 3.14296875 13.640625 3.0234375 C16.32152459 2.99680605 17.72694089 3.63407916 20 5 C14.82460394 6.56215872 8.95610657 6.37912846 4.015625 4.07421875 C2.375 3 2.375 3 0 1 C0 0.67 0 0.34 0 0 Z " fill="#96A6C3" transform="translate(521,78)"/>
<path d="M0 0 C0.66 0.66 1.32 1.32 2 2 C-2.75 4 -2.75 4 -5 4 C-5.33 5.98 -5.66 7.96 -6 10 C-6.66 10 -7.32 10 -8 10 C-8.125 6.625 -8.125 6.625 -8 3 C-5.40517871 0.40517871 -3.60116375 0.30009698 0 0 Z " fill="#BCCBDE" transform="translate(36,19)"/>
<path d="M0 0 C2 2 2 2 2 6 C0.35 6.66 -1.3 7.32 -3 8 C-4.5625 6.1875 -4.5625 6.1875 -6 4 C-5.67 3.01 -5.34 2.02 -5 1 C-5 1.66 -5 2.32 -5 3 C-3.68 3 -2.36 3 -1 3 C-0.67 2.01 -0.34 1.02 0 0 Z " fill="#BBC7DD" transform="translate(26,74)"/>
<path d="M0 0 C0.66 0.33 1.32 0.66 2 1 C0.625 3 0.625 3 -1 5 C-1.66 5 -2.32 5 -3 5 C-3.268125 5.61875 -3.53625 6.2375 -3.8125 6.875 C-5 9 -5 9 -8 11 C-6.68206814 5.33289301 -4.51290803 3.33562767 0 0 Z " fill="#B7C5DD" transform="translate(160,47)"/>
<path d="M0 0 C0.33 0 0.66 0 1 0 C1.02578125 0.60328125 1.0515625 1.2065625 1.078125 1.828125 C1.38876005 7.02592748 1.38876005 7.02592748 3.9375 11.4375 C4.618125 11.953125 5.29875 12.46875 6 13 C6.66 13.66 7.32 14.32 8 15 C6.02 15 4.04 15 2 15 C-0.59227518 10.13948404 -0.18689553 5.34728867 0 0 Z " fill="#6D7DAB" transform="translate(527,59)"/>
<path d="M0 0 C1.32 1.32 2.64 2.64 4 4 C3 6 3 6 -0.0625 7.125 C-1.031875 7.41375 -2.00125 7.7025 -3 8 C-2.37240135 5.07120629 -1.41377341 2.63904371 0 0 Z " fill="#9EB2CF" transform="translate(600,51)"/>
<path d="M0 0 C3.63 0 7.26 0 11 0 C11.66 1.65 12.32 3.3 13 5 C12.154375 4.505 11.30875 4.01 10.4375 3.5 C6.66203168 1.85252292 4.07182452 1.75569053 0 2 C0 1.34 0 0.68 0 0 Z " fill="#929DCB" transform="translate(255,53)"/>
<path d="M0 0 C0.99 0.33 1.98 0.66 3 1 C3 1.66 3 2.32 3 3 C3.804375 3.268125 4.60875 3.53625 5.4375 3.8125 C6.283125 4.204375 7.12875 4.59625 8 5 C8.33 5.99 8.66 6.98 9 8 C8.01 8.33 7.02 8.66 6 9 C6 7.68 6 6.36 6 5 C4.02253397 4.26919734 2.01927511 3.60578253 0 3 C-0.99 3.495 -0.99 3.495 -2 4 C-1.34 2.68 -0.68 1.36 0 0 Z " fill="#4C749E" transform="translate(678,68)"/>
<path d="M0 0 C4.29 0 8.58 0 13 0 C13.33 0.66 13.66 1.32 14 2 C13.22914063 1.97679688 12.45828125 1.95359375 11.6640625 1.9296875 C10.15972656 1.90261719 10.15972656 1.90261719 8.625 1.875 C7.62726562 1.85179688 6.62953125 1.82859375 5.6015625 1.8046875 C2.83737827 1.72783152 2.83737827 1.72783152 1 4 C0.67 2.68 0.34 1.36 0 0 Z " fill="#7C8BC2" transform="translate(659,67)"/>
<path d="M0 0 C1.35432675 1.31200404 2.68733482 2.64631404 4 4 C4 4.33 4 4.66 4 5 C-1.23471686 5.75612577 -5.77254141 6.2063366 -11 5 C-10.67 4.34 -10.34 3.68 -10 3 C-6.7 3 -3.4 3 0 3 C0 2.01 0 1.02 0 0 Z " fill="#7989CC" transform="translate(231,78)"/>
<path d="M0 0 C1.98 0.66 3.96 1.32 6 2 C6 2.66 6 3.32 6 4 C6.66 4.33 7.32 4.66 8 5 C6.68 6.65 5.36 8.3 4 10 C3.34 9.67 2.68 9.34 2 9 C2.226875 8.2575 2.45375 7.515 2.6875 6.75 C3.29476698 3.94085007 3.29476698 3.94085007 1.5625 1.6875 C1.046875 1.130625 0.53125 0.57375 0 0 Z " fill="#6675C4" transform="translate(317,70)"/>
<path d="M0 0 C1.43655854 -0.08131463 2.8744483 -0.13933559 4.3125 -0.1875 C5.51326172 -0.23970703 5.51326172 -0.23970703 6.73828125 -0.29296875 C9.47851584 0.06198392 10.29171079 0.89366282 12 3 C11.67 3.66 11.34 4.32 11 5 C9.9275 4.525625 8.855 4.05125 7.75 3.5625 C5.19160135 2.46233668 2.74164983 1.54832997 0 1 C0 0.67 0 0.34 0 0 Z " fill="#7D8FC3" transform="translate(387,67)"/>
<path d="M0 0 C3.63 0 7.26 0 11 0 C10.67 0.99 10.34 1.98 10 3 C8.9275 2.79375 7.855 2.5875 6.75 2.375 C3.12380904 2.0123809 1.91708924 2.01637931 -1 4 C-0.67 2.68 -0.34 1.36 0 0 Z " fill="#96A3BF" transform="translate(388,53)"/>
<path d="M0 0 C0.66 1.32 1.32 2.64 2 4 C1.01 4.66 0.02 5.32 -1 6 C-1 4.68 -1 3.36 -1 2 C-4.63 2.33 -8.26 2.66 -12 3 C-11.67 2.34 -11.34 1.68 -11 1 C-9.00390625 0.5859375 -9.00390625 0.5859375 -6.5625 0.375 C-5.75941406 0.30023438 -4.95632813 0.22546875 -4.12890625 0.1484375 C-2.75505053 0.05264572 -1.3771912 0 0 0 Z " fill="#7C9FC1" transform="translate(707,44)"/>
<path d="M0 0 C0 0.99 0 1.98 0 3 C2.97 3 5.94 3 9 3 C4.71970042 5.14014979 4.11227246 5.15816979 -0.25 4.125 C-1.14203125 3.92132813 -2.0340625 3.71765625 -2.953125 3.5078125 C-3.62859375 3.34023437 -4.3040625 3.17265625 -5 3 C-2.25 0 -2.25 0 0 0 Z " fill="#808DC3" transform="translate(547,79)"/>
<path d="M0 0 C2.97 0.33 5.94 0.66 9 1 C9 1.66 9 2.32 9 3 C6.03 3 3.06 3 0 3 C0 2.01 0 1.02 0 0 Z " fill="#8791C8" transform="translate(429,72)"/>
<path d="M0 0 C2.25 0.25 2.25 0.25 4 1 C3.67 1.66 3.34 2.32 3 3 C2.34 3 1.68 3 1 3 C1 3.66 1 4.32 1 5 C-0.65 4.67 -2.3 4.34 -4 4 C-2.25 1.9375 -2.25 1.9375 0 0 Z " fill="#96AADB" transform="translate(403,52)"/>
<path d="M0 0 C1.32 0 2.64 0 4 0 C4 1.65 4 3.3 4 5 C2.68 5 1.36 5 0 5 C0 3.35 0 1.7 0 0 Z " fill="#ECF4FD" transform="translate(68,99)"/>
<path d="M0 0 C2.97 0.33 5.94 0.66 9 1 C9 1.66 9 2.32 9 3 C6.36 3 3.72 3 1 3 C0.67 2.01 0.34 1.02 0 0 Z " fill="#7988C2" transform="translate(300,72)"/>
<path d="M0 0 C0.66 0.33 1.32 0.66 2 1 C0.73760288 1.86658615 -0.53527501 2.71792059 -1.8125 3.5625 C-2.87404297 4.27599609 -2.87404297 4.27599609 -3.95703125 5.00390625 C-6 6 -6 6 -9 5 C-7.54735962 4.1361871 -6.0876837 3.28419546 -4.625 2.4375 C-3.40683594 1.72400391 -3.40683594 1.72400391 -2.1640625 0.99609375 C-1.44992187 0.66738281 -0.73578125 0.33867188 0 0 Z " fill="#9CADD4" transform="translate(663,44)"/>
<path d="M0 0 C0.99 0 1.98 0 3 0 C1.70700306 2.88437779 0.34058637 4.87219421 -2 7 C-1.125 1.125 -1.125 1.125 0 0 Z " fill="#C4CFE2" transform="translate(22,44)"/>
<path d="M0 0 C0.7425 0.61875 1.485 1.2375 2.25 1.875 C5.07171298 4.19670804 5.07171298 4.19670804 9 6 C6.03 5.67 3.06 5.34 0 5 C0 3.35 0 1.7 0 0 Z " fill="#6F8EBA" transform="translate(576,68)"/>
<path d="M0 0 C0.99 0 1.98 0 3 0 C3 0.66 3 1.32 3 2 C1.68 1.67 0.36 1.34 -1 1 C-0.67 0.67 -0.34 0.34 0 0 Z " fill="#00398C" transform="translate(96,59)"/>
<path d="" fill="#000080" transform="translate(0,0)"/>
</svg>
