<?xml version="1.0" encoding="UTF-8"?>
<svg version="1.1" xmlns="http://www.w3.org/2000/svg" width="747" height="192">
<path d="M0 0 C1.01771484 -0.00860046 2.03542969 -0.01720093 3.08398438 -0.02606201 C4.20501556 -0.03032196 5.32604675 -0.03458191 6.48104858 -0.03897095 C7.6584259 -0.04714844 8.83580322 -0.05532593 10.04885864 -0.06375122 C13.9603235 -0.08864152 17.87178079 -0.10528421 21.78329468 -0.11953735 C23.13092429 -0.12489772 24.47855384 -0.13027523 25.82618332 -0.13566971 C31.43477005 -0.15730356 37.04335391 -0.17603752 42.65197182 -0.1872921 C50.68160996 -0.20351166 58.71076266 -0.23663422 66.7402178 -0.29369295 C72.38959329 -0.33246377 78.03883937 -0.35193346 83.68834436 -0.35721266 C87.06015685 -0.36085785 90.43145166 -0.37278765 93.80311966 -0.4053154 C97.57113698 -0.43693433 101.33793341 -0.43700733 105.10604858 -0.42959595 C106.21493439 -0.44600128 107.32382019 -0.46240662 108.46630859 -0.47930908 C115.18118297 -0.42532132 120.24176697 0.32602748 125.18173218 5.15390015 C129.53902982 10.7643166 129.75464463 16.62854012 129.68344116 23.49789429 C129.69154564 25.00433754 129.69154564 25.00433754 129.69981384 26.54121399 C129.71225917 29.84080018 129.6958386 33.13950673 129.67782593 36.4390564 C129.677981 38.74255926 129.67947135 41.04606239 129.68223572 43.3495636 C129.6836178 48.16865626 129.67109225 52.98745062 129.64828491 57.80648804 C129.61988529 63.97572116 129.6226447 70.14445946 129.63537502 76.31372929 C129.64233765 81.06730864 129.63453643 85.82077411 129.622118 90.57433891 C129.61761033 92.84886679 129.61726069 95.12340691 129.6211834 97.39793587 C129.62410167 100.57864478 129.60755895 103.75867722 129.58578491 106.93930054 C129.59253738 108.34141281 129.59253738 108.34141281 129.59942627 109.77185059 C129.52783112 116.08325263 128.77523056 121.19495426 124.46298218 126.11483765 C123.87516968 126.58147827 123.28735718 127.0481189 122.68173218 127.52890015 C122.09391968 128.01100952 121.50610718 128.4931189 120.90048218 128.98983765 C117.7573715 131.11858079 114.99813995 131.28428421 111.31913757 131.30780029 C110.31687637 131.31640076 109.31461517 131.32500122 108.28198242 131.3338623 C107.18324799 131.33812225 106.08451355 131.3423822 104.95248413 131.34677124 C103.21545982 131.35903748 103.21545982 131.35903748 101.44334412 131.37155151 C97.60223917 131.39641047 93.7611712 131.41292327 89.92001343 131.42733765 C88.60884237 131.43266132 87.29767132 131.437985 85.94676781 131.44347 C80.43507614 131.46509566 74.92338735 131.48382999 69.41166401 131.49509239 C61.52474255 131.51131639 53.63831491 131.54445915 45.75157958 131.60149324 C40.19984768 131.64026565 34.64824744 131.65973378 29.09638375 131.66501296 C25.78379676 131.66865723 22.47185601 131.68309799 19.15938759 131.71311569 C15.45852831 131.7447384 11.75891184 131.74480726 8.05795288 131.73739624 C6.9693396 131.75380157 5.88072632 131.77020691 4.75912476 131.78710938 C-1.96797194 131.73205092 -6.79048329 130.83819179 -11.81826782 126.15390015 C-16.47700114 120.95310203 -16.3913761 115.22906472 -16.33584595 108.54037476 C-16.34285522 107.49560471 -16.3498645 106.45083466 -16.35708618 105.37440491 C-16.37463386 101.93474436 -16.3630551 98.49591222 -16.34951782 95.0562439 C-16.35221344 92.65923404 -16.35609645 90.26222524 -16.3611145 87.86521912 C-16.36700503 82.84765181 -16.35845977 77.83036978 -16.3397522 72.81283569 C-16.31695107 66.38444562 -16.3300966 59.95672316 -16.35404205 53.52835751 C-16.36850125 48.58093746 -16.36389358 43.63367551 -16.35353088 38.68625069 C-16.3508646 36.31599409 -16.35412987 33.9457231 -16.3634491 31.57548332 C-16.37361757 28.2626127 -16.35810853 24.95082133 -16.33584595 21.63803101 C-16.34394287 20.66072021 -16.35203979 19.68340942 -16.36038208 18.67648315 C-16.28967516 12.99161494 -15.65958114 9.63952927 -11.81826782 5.15390015 C-7.72041072 1.54388317 -5.41965763 0.03403058 0 0 Z M31.18173218 36.15390015 C31.46190249 37.6560899 31.75615919 39.1556594 32.05673218 40.65390015 C32.48069103 44.125375 32.45344348 45.68036653 30.69345093 48.74765015 C29.42291984 50.3160813 28.10868966 51.8503851 26.74813843 53.34140015 C24.96377399 55.00683846 24.96377399 55.00683846 25.18173218 57.15390015 C24.37735718 57.29827515 23.57298218 57.44265015 22.74423218 57.59140015 C20.26069512 57.89525264 20.26069512 57.89525264 19.18173218 59.15390015 C19.0300607 61.10812881 18.95993222 63.06899743 18.93173218 65.02890015 C18.90595093 66.09882202 18.88016968 67.1687439 18.85360718 68.27108765 C18.94642255 71.14030115 18.94642255 71.14030115 20.50985718 73.03671265 C22.26232665 74.43169839 22.26232665 74.43169839 25.18173218 74.15390015 C25.36735718 74.97890015 25.55298218 75.80390015 25.74423218 76.65390015 C27.13379691 80.03718819 28.28345747 81.50456116 30.74423218 84.09140015 C34.22274398 87.83638179 34.97579015 90.10832045 35.18173218 95.15390015 C36.3445025 96.54546499 36.3445025 96.54546499 39.56063843 96.2515564 C40.95520295 96.24488384 42.3497496 96.23292546 43.74423218 96.21640015 C44.45515015 96.21188843 45.16606812 96.20737671 45.89852905 96.20272827 C47.65963231 96.19090879 49.42069254 96.17297278 51.18173218 96.15390015 C51.67673218 95.16390015 51.67673218 95.16390015 52.18173218 94.15390015 C54.74423218 93.52890015 54.74423218 93.52890015 57.18173218 93.15390015 C57.51173218 94.14390015 57.84173218 95.13390015 58.18173218 96.15390015 C59.50173218 96.15390015 60.82173218 96.15390015 62.18173218 96.15390015 C62.18173218 95.16390015 62.18173218 94.17390015 62.18173218 93.15390015 C61.52173218 93.15390015 60.86173218 93.15390015 60.18173218 93.15390015 C60.18173218 91.83390015 60.18173218 90.51390015 60.18173218 89.15390015 C56.22173218 89.15390015 52.26173218 89.15390015 48.18173218 89.15390015 C48.18173218 90.47390015 48.18173218 91.79390015 48.18173218 93.15390015 C44.88173218 93.15390015 41.58173218 93.15390015 38.18173218 93.15390015 C38.2996814 91.82165405 38.2996814 91.82165405 38.42001343 90.4624939 C38.12866625 86.41706673 37.0472919 85.19363051 34.36923218 82.21640015 C31.01581449 78.29319821 28.87112396 75.01090151 27.18173218 70.15390015 C25.53173218 70.15390015 23.88173218 70.15390015 22.18173218 70.15390015 C22.67673218 65.69890015 22.67673218 65.69890015 23.18173218 61.15390015 C24.50173218 60.82390015 25.82173218 60.49390015 27.18173218 60.15390015 C28.86793977 57.99326357 28.86793977 57.99326357 30.24423218 55.34140015 C31.6868931 52.75073319 33.02958339 50.34452334 34.88095093 48.0249939 C36.51026814 46.10348198 36.51026814 46.10348198 35.93173218 43.02890015 C35.30912146 40.23621322 35.30912146 40.23621322 34.18173218 38.15390015 C35.08923218 38.64890015 35.99673218 39.14390015 36.93173218 39.65390015 C40.19046256 41.43327226 40.19046256 41.43327226 44.18173218 41.15390015 C43.46089541 37.91940303 43.46089541 37.91940303 40.43173218 36.46640015 C35.64809219 34.45425786 35.64809219 34.45425786 31.18173218 36.15390015 Z M49.18173218 39.15390015 C49.18173218 40.14390015 49.18173218 41.13390015 49.18173218 42.15390015 C50.50173218 42.15390015 51.82173218 42.15390015 53.18173218 42.15390015 C53.18173218 41.16390015 53.18173218 40.17390015 53.18173218 39.15390015 C51.86173218 39.15390015 50.54173218 39.15390015 49.18173218 39.15390015 Z M57.18173218 39.15390015 C57.18173218 40.14390015 57.18173218 41.13390015 57.18173218 42.15390015 C58.50173218 42.15390015 59.82173218 42.15390015 61.18173218 42.15390015 C61.18173218 41.16390015 61.18173218 40.17390015 61.18173218 39.15390015 C59.86173218 39.15390015 58.54173218 39.15390015 57.18173218 39.15390015 Z M65.18173218 41.15390015 C64.85173218 42.14390015 64.52173218 43.13390015 64.18173218 44.15390015 C65.50173218 44.48390015 66.82173218 44.81390015 68.18173218 45.15390015 C68.51173218 44.16390015 68.84173218 43.17390015 69.18173218 42.15390015 C67.86173218 41.82390015 66.54173218 41.49390015 65.18173218 41.15390015 Z M72.18173218 45.15390015 C71.85173218 46.14390015 71.52173218 47.13390015 71.18173218 48.15390015 C72.17173218 48.48390015 73.16173218 48.81390015 74.18173218 49.15390015 C74.18173218 47.83390015 74.18173218 46.51390015 74.18173218 45.15390015 C73.52173218 45.15390015 72.86173218 45.15390015 72.18173218 45.15390015 Z M78.18173218 51.15390015 C78.18173218 52.47390015 78.18173218 53.79390015 78.18173218 55.15390015 C79.17173218 54.49390015 80.16173218 53.83390015 81.18173218 53.15390015 C80.85173218 52.49390015 80.52173218 51.83390015 80.18173218 51.15390015 C79.52173218 51.15390015 78.86173218 51.15390015 78.18173218 51.15390015 Z M81.18173218 58.15390015 C81.18173218 59.47390015 81.18173218 60.79390015 81.18173218 62.15390015 C82.17173218 62.15390015 83.16173218 62.15390015 84.18173218 62.15390015 C83.85173218 60.83390015 83.52173218 59.51390015 83.18173218 58.15390015 C82.52173218 58.15390015 81.86173218 58.15390015 81.18173218 58.15390015 Z M73.18173218 69.15390015 C72.52079033 71.4714334 72.12086249 73.70279935 71.83407593 76.0953064 C71.61880249 76.77464233 71.40352905 77.45397827 71.18173218 78.15390015 C69.20173218 79.14390015 69.20173218 79.14390015 67.18173218 80.15390015 C67.18173218 85.43390015 67.18173218 90.71390015 67.18173218 96.15390015 C75.76173218 96.15390015 84.34173218 96.15390015 93.18173218 96.15390015 C93.18173218 90.54390015 93.18173218 84.93390015 93.18173218 79.15390015 C91.86173218 79.15390015 90.54173218 79.15390015 89.18173218 79.15390015 C89.26423218 78.10202515 89.34673218 77.05015015 89.43173218 75.96640015 C89.45011907 72.16920055 89.45011907 72.16920055 87.61923218 69.27890015 C83.02878994 65.27697614 77.64198798 64.82108022 73.18173218 69.15390015 Z " fill="#151515" transform="translate(36.818267822265625,34.846099853515625)"/>
<path d="M0 0 C4.83345732 3.37217952 7.82713216 7.31859163 9.6875 12.875 C10.58948525 19.89160617 10.0743465 26.15133342 5.6875 31.875 C1.76514876 35.94977421 -2.34498052 37.6567599 -7.9609375 38.0234375 C-11.94673928 37.77184204 -17.38020912 36.80729088 -20.3125 33.875 C-20.6425 41.795 -20.9725 49.715 -21.3125 57.875 C-23.9525 57.875 -26.5925 57.875 -29.3125 57.875 C-29.3125 38.735 -29.3125 19.595 -29.3125 -0.125 C-26.6725 -0.125 -24.0325 -0.125 -21.3125 -0.125 C-20.9825 0.865 -20.6525 1.855 -20.3125 2.875 C-19.714375 2.400625 -19.11625 1.92625 -18.5 1.4375 C-13.13046969 -2.39787879 -6.04133139 -2.05177292 0 0 Z M-18.3125 8.875 C-20.93216618 12.42422515 -21.53645903 15.13345315 -21.25 19.4375 C-20.58911865 23.56974757 -19.55102619 26.06259568 -16.3125 28.875 C-12.11965276 30.77364781 -10.08890006 31.08554917 -5.625 29.875 C-1.80509129 27.56864002 -0.2419554 25.88826724 1.6875 21.875 C2.3350474 16.69462079 1.63649302 13.20018976 -1.3125 8.875 C-7.53300383 4.81814968 -12.09199617 4.81814968 -18.3125 8.875 Z " fill="#2B2B2B" transform="translate(312.3125,82.125)"/>
<path d="M0 0 C2.64 0 5.28 0 8 0 C8.33 11.55 8.66 23.1 9 35 C10.918125 32.855 12.83625 30.71 14.8125 28.5 C20.61931573 22.35982456 20.61931573 22.35982456 25.3125 21.13671875 C27.98980913 21.18203778 30.39599247 21.38944112 33 22 C28.30233025 27.66129431 23.25276628 32.85228904 18 38 C19.42582518 41.28085283 21.16741406 43.35503935 23.75 45.8125 C31.22353706 53.10874512 31.22353706 53.10874512 34 57 C34 57.66 34 58.32 34 59 C29.53780182 59.65987835 25.63579703 60.09959923 21.76855469 57.5 C19.66513859 55.42395366 17.75927642 53.27651355 15.875 51 C15.2046875 50.236875 14.534375 49.47375 13.84375 48.6875 C12.20394615 46.81343845 10.59837161 44.90952129 9 43 C8.67 48.28 8.34 53.56 8 59 C5.36 59 2.72 59 0 59 C0 39.53 0 20.06 0 0 Z " fill="#353535" transform="translate(623,60)"/>
<path d="M0 0 C5.42411127 2.66274553 8.8443967 6.34211241 11.25 11.875 C12 15 12 15 12 22 C2.43 22 -7.14 22 -17 22 C-14.65997965 27.8400582 -14.65997965 27.8400582 -11.3125 29.9375 C-6.91432109 31.34823663 -4.50290755 31.03345419 0 30 C1.70921589 28.4587688 1.70921589 28.4587688 3 27 C6.0417096 27.28516028 7.39045802 28.26030535 10 30 C8.49235345 34.22141034 5.78707131 35.80349864 2 38 C-3.09802418 40.03920967 -8.60282313 39.44993831 -13.6875 37.8125 C-19.25684444 34.76512285 -22.8814447 31.02115717 -25 25 C-25.89614984 17.8745159 -25.29091617 11.89304397 -21 6 C-14.89209092 0.04870397 -8.25179061 -0.98293388 0 0 Z M-15 10 C-15.66 11.98 -16.32 13.96 -17 16 C-10.07 16 -3.14 16 4 16 C2.57212814 10.42011212 2.57212814 10.42011212 -1 7 C-7.08736932 5.50310591 -10.17235191 5.51718392 -15 10 Z " fill="#323232" transform="translate(353,81)"/>
<path d="M0 0 C4.19826665 3.19068266 6.46295531 6.38886593 8.125 11.375 C8.125 14.345 8.125 17.315 8.125 20.375 C-1.115 20.375 -10.355 20.375 -19.875 20.375 C-17.99013256 25.62186498 -17.99013256 25.62186498 -13.875 28.375 C-9.87229155 29.34931572 -9.87229155 29.34931572 -5.875 29.375 C-2.65670896 27.45206482 -2.65670896 27.45206482 0.125 25.375 C2.3125 25.375 2.3125 25.375 4.125 26.375 C5.875 28.4375 5.875 28.4375 7.125 30.375 C1.78107694 35.07117481 -3.53274849 38.00530713 -10.83203125 37.65234375 C-17.33271083 36.76984232 -21.6678127 34.49521176 -25.68359375 29.25390625 C-29.48534069 23.25836436 -29.35346331 17.08743928 -27.875 10.375 C-25.93315899 5.08272865 -22.8155419 2.05112686 -17.875 -0.625 C-12.11392567 -2.40222583 -5.45094503 -2.83731696 0 0 Z M-16.875 7.375 C-19.25746609 10.0039281 -19.875 10.76334178 -19.875 14.375 C-13.275 14.375 -6.675 14.375 0.125 14.375 C-0.41987087 8.90420096 -0.41987087 8.90420096 -1.9375 6.5625 C-7.12231124 3.38471247 -12.28214662 3.56949291 -16.875 7.375 Z " fill="#282828" transform="translate(474.875,82.625)"/>
<path d="M0 0 C6.54933513 5.45777927 6.1343766 10.34376597 7 19 C-2.57 19 -12.14 19 -22 19 C-20.11513256 24.24686498 -20.11513256 24.24686498 -16 27 C-11.99729155 27.97431572 -11.99729155 27.97431572 -8 28 C-4.78170896 26.07706482 -4.78170896 26.07706482 -2 24 C1.13660739 24.17923471 2.30713709 25.20475806 5 27 C3.95274189 30.25813633 2.42983232 31.53606177 -0.4375 33.1875 C-6.75237015 36.40032867 -12.44575187 37.0456386 -19.1875 34.875 C-24.07855912 32.80349261 -26.73984359 29.60366946 -29.00390625 24.92578125 C-31.12558046 19.47412511 -31.56409035 14.66714929 -30 9 C-27.48230382 4.15110366 -23.50816905 -0.84274092 -18.1171875 -2.62109375 C-11.60079795 -3.78731107 -5.636568 -3.757712 0 0 Z M-20 7 C-22.2773501 9.81509993 -22.2773501 9.81509993 -22 13 C-15.4 13 -8.8 13 -2 13 C-2.54487087 7.52920096 -2.54487087 7.52920096 -4.0625 5.1875 C-10.1048304 1.48413621 -14.87605865 2.60805028 -20 7 Z " fill="#383838" transform="translate(230,84)"/>
<path d="M0 0 C5.64087377 3.93549333 8.36669691 8.15091154 9.6875 14.875 C9.6875 16.855 9.6875 18.835 9.6875 20.875 C0.1175 20.875 -9.4525 20.875 -19.3125 20.875 C-16.97247965 26.7150582 -16.97247965 26.7150582 -13.625 28.8125 C-9.22682109 30.22323663 -6.81540755 29.90845419 -2.3125 28.875 C-0.60328411 27.3337688 -0.60328411 27.3337688 0.6875 25.875 C3.7292096 26.16016028 5.07795802 27.13530535 7.6875 28.875 C5.8216501 33.38413727 3.36267913 35.15162719 -1.0625 37.0625 C-8.00965731 38.79928933 -13.01948745 38.31834649 -19.3125 34.875 C-23.95912598 30.96760997 -26.97775876 27.20865595 -27.59765625 21.03515625 C-27.76008477 15.3219097 -27.79934241 10.64035129 -24.3125 5.875 C-17.14287657 -0.98290067 -9.56732374 -3.24927976 0 0 Z M-17.3125 8.875 C-17.9725 10.855 -18.6325 12.835 -19.3125 14.875 C-12.3825 14.875 -5.4525 14.875 1.6875 14.875 C0.25962814 9.29511212 0.25962814 9.29511212 -3.3125 5.875 C-9.39986932 4.37810591 -12.48485191 4.39218392 -17.3125 8.875 Z " fill="#272727" transform="translate(688.3125,82.125)"/>
<path d="M0 0 C3.68854853 3.07379044 4.96353017 5.92511536 6 10.5 C6.34437 15.00889411 6.28432551 19.48147632 6.1875 24 C6.16719727 25.80597656 6.16719727 25.80597656 6.14648438 27.6484375 C6.11135352 30.59942973 6.06215996 33.54947412 6 36.5 C3.69 36.5 1.38 36.5 -1 36.5 C-1.33 35.18 -1.66 33.86 -2 32.5 C-2.5259375 33.180625 -2.5259375 33.180625 -3.0625 33.875 C-6.81976677 37.026256 -11.26963212 37.75886087 -16.0625 37.4375 C-20.63315496 36.66386774 -22.91853617 34.9572521 -26 31.5 C-27.30255289 27.36247904 -27.12959952 25.00975811 -26.0625 20.8125 C-23.33784318 16.43653601 -20.99687075 14.73610746 -16 13.5 C-11.31154376 13.19280792 -6.69029819 13.26285009 -2 13.5 C-3.07597731 9.76240356 -3.07597731 9.76240356 -5 6.5 C-11.03154039 4.7202012 -13.46412686 5.60624813 -19 8.5 C-22.39605555 7.55665124 -22.99411288 6.50883067 -25 3.5 C-17.23354924 -1.04264101 -8.79979924 -4.26827869 0 0 Z M-18 21.75 C-19.27898987 23.61769885 -19.27898987 23.61769885 -18.8125 26.625 C-18.544375 27.57375 -18.27625 28.5225 -18 29.5 C-14.22561386 31.38719307 -9.5761945 30.99774563 -5.625 29.75 C-3.53245854 28.14035272 -2.83721463 27.01164389 -2 24.5 C-1.83275263 21.33304044 -1.83275263 21.33304044 -2 18.5 C-7.78779591 18.26376343 -12.98030987 18.61269367 -18 21.75 Z " fill="#1C1C1C" transform="translate(572,82.5)"/>
<path d="M0 0 C3.72110799 3.18952113 5.97470057 6.30829282 6.64160156 11.21826172 C6.6206543 12.40178223 6.59970703 13.58530273 6.578125 14.8046875 C6.56523437 16.09375 6.55234375 17.3828125 6.5390625 18.7109375 C6.50564906 20.05730268 6.47178937 21.40365685 6.4375 22.75 C6.41741356 24.11976569 6.39916655 25.48955966 6.3828125 26.859375 C6.3357806 30.19863986 6.27005864 33.53645562 6.1875 36.875 C3.5475 36.875 0.9075 36.875 -1.8125 36.875 C-1.8218457 36.07280029 -1.83119141 35.27060059 -1.84082031 34.4440918 C-1.89443742 30.81626361 -1.97810298 27.18973708 -2.0625 23.5625 C-2.07667969 22.29986328 -2.09085937 21.03722656 -2.10546875 19.73632812 C-2.13769531 18.52783203 -2.16992188 17.31933594 -2.203125 16.07421875 C-2.22407227 14.95877686 -2.24501953 13.84333496 -2.26660156 12.6940918 C-2.56460933 9.79117218 -2.56460933 9.79117218 -4.62792969 7.97973633 C-7.95595046 6.29675756 -10.27784809 6.97527042 -13.8125 7.875 C-16.39705285 9.77033875 -16.77525506 10.76326517 -17.8125 13.875 C-17.96085948 15.64666975 -18.06020018 17.42267612 -18.12890625 19.19921875 C-18.17080078 20.22724609 -18.21269531 21.25527344 -18.25585938 22.31445312 C-18.29517578 23.38630859 -18.33449219 24.45816406 -18.375 25.5625 C-18.41818359 26.64595703 -18.46136719 27.72941406 -18.50585938 28.84570312 C-18.61196838 31.52200791 -18.71402361 34.19840526 -18.8125 36.875 C-21.4525 36.875 -24.0925 36.875 -26.8125 36.875 C-26.8125 24.665 -26.8125 12.455 -26.8125 -0.125 C-24.1725 -0.125 -21.5325 -0.125 -18.8125 -0.125 C-18.4825 0.535 -18.1525 1.195 -17.8125 1.875 C-17.008125 1.38 -16.20375 0.885 -15.375 0.375 C-10.10469431 -1.84407608 -5.35202997 -2.14081199 0 0 Z " fill="#333333" transform="translate(398.8125,82.125)"/>
<path d="M0 0 C3.51151441 -0.63588792 6.51579264 -0.86217649 10 0 C12.35146177 2.43254666 13.93501142 4.88751977 15.625 7.8125 C16.07875 8.534375 16.5325 9.25625 17 10 C17.66 10 18.32 10 19 10 C20.05895896 8.35729358 21.07247474 6.68514938 22.0625 5 C25.26880522 0.19730653 25.26880522 0.19730653 28.4609375 -0.6640625 C30.71619206 -0.62849066 32.79188422 -0.45063587 35 0 C32.94564833 4.61957386 29.70694167 8.31122406 26.58203125 12.24609375 C24.80861833 14.82312359 24.80861833 14.82312359 24.94921875 17.4375 C26.38796877 20.94612459 28.60395895 23.67061157 31 26.5625 C36.56939163 33.33085789 36.56939163 33.33085789 37 37 C31.5388601 38.23316062 31.5388601 38.23316062 28 37 C23.89912259 32.99727054 20.96888582 27.85930372 18 23 C17.28972656 23.92683594 16.57945312 24.85367188 15.84765625 25.80859375 C14.91930895 27.01825842 13.99092145 28.22789224 13.0625 29.4375 C12.59392578 30.04916016 12.12535156 30.66082031 11.64257812 31.29101562 C8.11328125 35.88671875 8.11328125 35.88671875 7 37 C5.48071962 37.07179964 3.95832518 37.08392007 2.4375 37.0625 C1.61121094 37.05347656 0.78492188 37.04445312 -0.06640625 37.03515625 C-0.70449219 37.02355469 -1.34257812 37.01195312 -2 37 C-0.69854715 34.21667602 0.74791047 31.89547315 2.671875 29.50390625 C3.17074219 28.86259766 3.66960937 28.22128906 4.18359375 27.56054688 C5.2319549 26.22329817 6.29201971 24.89514644 7.36328125 23.57617188 C8.75959984 21.75877027 9.9872819 20.05619498 11 18 C10.34375306 13.57368139 7.09506839 10.2180872 4.375 6.75 C0 1.11349693 0 1.11349693 0 0 Z " fill="#3B3B3B" transform="translate(241,82)"/>
<path d="M0 0 C1.6328125 0.99609375 1.6328125 0.99609375 3.9453125 3.24609375 C3.9453125 4.56609375 3.9453125 5.88609375 3.9453125 7.24609375 C1.4453125 8.99609375 1.4453125 8.99609375 -1.0546875 10.24609375 C-1.7559375 9.73046875 -2.4571875 9.21484375 -3.1796875 8.68359375 C-6.68480184 6.93103658 -8.3473934 7.15075686 -12.0546875 8.24609375 C-12.3846875 8.90609375 -12.7146875 9.56609375 -13.0546875 10.24609375 C-10.50448494 13.36987128 -7.93792685 14.05374258 -4.1171875 15.12109375 C-0.45513813 16.29454367 1.72897496 17.06417354 4.6953125 19.55859375 C6.33078542 23.07486053 6.42536618 25.40566432 5.9453125 29.24609375 C4.13909974 33.42890224 2.01050879 35.26307117 -2.0546875 37.24609375 C-7.03996437 39.0740286 -11.86182642 38.66359513 -16.8046875 36.93359375 C-19.48769274 35.54049488 -21.18296152 34.55822584 -23.0546875 32.24609375 C-22.00593752 29.62421881 -21.40537437 28.45238014 -18.9296875 26.99609375 C-18.3109375 26.74859375 -17.6921875 26.50109375 -17.0546875 26.24609375 C-16.5184375 26.72046875 -15.9821875 27.19484375 -15.4296875 27.68359375 C-11.96037007 29.96603942 -8.76809853 30.5617221 -4.6796875 29.80859375 C-4.1434375 29.62296875 -3.6071875 29.43734375 -3.0546875 29.24609375 C-3.01512076 26.80280063 -3.01512076 26.80280063 -4.0546875 24.24609375 C-7.13721075 22.71590222 -7.13721075 22.71590222 -10.8671875 21.74609375 C-16.20195177 20.19818287 -19.06893505 19.04383847 -22.0546875 14.24609375 C-22.72128074 10.64649026 -22.80053368 8.42448395 -20.80859375 5.27734375 C-15.54251544 -1.13125031 -8.0246556 -2.94440785 0 0 Z " fill="#313131" transform="translate(435.0546875,81.75390625)"/>
<path d="M0 0 C1.89698812 0.95694766 3.73855239 2.02229609 5.56640625 3.10546875 C5.56640625 7.10546875 5.56640625 7.10546875 4.06640625 8.85546875 C3.57140625 9.26796875 3.07640625 9.68046875 2.56640625 10.10546875 C1.88578125 9.79609375 1.20515625 9.48671875 0.50390625 9.16796875 C-3.81465857 7.60593467 -7.63362156 6.73729262 -12.18359375 7.66796875 C-15.35324767 9.69302542 -16.17192847 11.58608665 -17.43359375 15.10546875 C-17.98831459 19.54323551 -17.74528096 21.54443177 -15.55859375 25.48046875 C-13.70256566 28.14340069 -13.70256566 28.14340069 -11.43359375 29.10546875 C-5.74296591 29.48484394 -2.44983723 29.11521484 2.56640625 26.10546875 C3.88640625 27.75546875 5.20640625 29.40546875 6.56640625 31.10546875 C6.06640625 32.91796875 6.06640625 32.91796875 4.56640625 35.10546875 C-1.85775347 38.49275296 -7.37267199 38.64411737 -14.43359375 37.10546875 C-19.75668413 35.20015596 -22.71163263 32.02593693 -25.43359375 27.10546875 C-27.40462816 21.19236552 -27.43099881 14.4738455 -24.87109375 8.73046875 C-19.85414138 0.00455516 -9.40973105 -3.4587936 0 0 Z " fill="#2F2F2F" transform="translate(611.43359375,81.89453125)"/>
<path d="M0 0 C2.64 0 5.28 0 8 0 C8 3.3 8 6.6 8 10 C11.3 10 14.6 10 18 10 C18 12.31 18 14.62 18 17 C14.7 17 11.4 17 8 17 C8.14040213 20.29198191 8.28706875 23.58347446 8.4375 26.875 C8.47681641 27.81214844 8.51613281 28.74929687 8.55664062 29.71484375 C8.59853516 30.61074219 8.64042969 31.50664063 8.68359375 32.4296875 C8.72025146 33.25710449 8.75690918 34.08452148 8.79467773 34.93701172 C8.88238327 37.06179429 8.88238327 37.06179429 10 39 C12.64 39 15.28 39 18 39 C18 41.64 18 44.28 18 47 C9.02169065 48.44698966 9.02169065 48.44698966 5 46.6875 C1.60657531 43.82429792 0.62217652 42.39589039 0 38 C-0.07700286 36.30742755 -0.10805067 34.61226001 -0.09765625 32.91796875 C-0.09443359 31.98662109 -0.09121094 31.05527344 -0.08789062 30.09570312 C-0.07951172 29.13599609 -0.07113281 28.17628906 -0.0625 27.1875 C-0.05798828 26.20845703 -0.05347656 25.22941406 -0.04882812 24.22070312 C-0.03708684 21.81373889 -0.02066419 19.40690143 0 17 C-1.7015625 17.0309375 -1.7015625 17.0309375 -3.4375 17.0625 C-7 17 -7 17 -8 16 C-8.04080783 14.00041636 -8.04254356 11.99954746 -8 10 C-5.36 10 -2.72 10 0 10 C0 6.7 0 3.4 0 0 Z " fill="#383838" transform="translate(493,72)"/>
<path d="M0 0 C1.98 0 3.96 0 6 0 C8.48030266 3.74929473 8.07638061 7.32469541 7.875 11.625 C7.6995858 17.83212641 8.34475279 22.45219317 11.22265625 28.08203125 C12 30 12 30 11 33 C9.68 32.67 8.36 32.34 7 32 C7 40.25 7 48.5 7 57 C4.69 57 2.38 57 0 57 C0 38.19 0 19.38 0 0 Z " fill="#1A1A1A" transform="translate(284,83)"/>
<path d="M0 0 C0 2.97 0 5.94 0 9 C-1.5778125 8.9071875 -1.5778125 8.9071875 -3.1875 8.8125 C-7.18387024 9.0090428 -8.86899906 9.60570516 -12 12 C-13.28605661 14.57211322 -13.21043941 16.56906966 -13.31640625 19.4453125 C-13.35830078 20.52167969 -13.40019531 21.59804687 -13.44335938 22.70703125 C-13.50233398 24.39892578 -13.50233398 24.39892578 -13.5625 26.125 C-13.60568359 27.26066406 -13.64886719 28.39632812 -13.69335938 29.56640625 C-13.7996604 32.37747768 -13.90169405 35.18863945 -14 38 C-16.64 38 -19.28 38 -22 38 C-22 25.79 -22 13.58 -22 1 C-19.36 1 -16.72 1 -14 1 C-13.67 1.66 -13.34 2.32 -13 3 C-12.34 2.505 -11.68 2.01 -11 1.5 C-7.03366759 -0.48316621 -4.39696738 -0.22357461 0 0 Z " fill="#353535" transform="translate(727,81)"/>
<path d="M0 0 C-0.33 2.97 -0.66 5.94 -1 9 C-3.24609375 9.13020833 -5.4921875 9.26041667 -7.73828125 9.390625 C-10.7758845 10.2090466 -11.39440736 11.32777067 -13 14 C-13.50032958 16.69964156 -13.50032958 16.69964156 -13.51171875 19.640625 C-13.54716797 20.71054688 -13.58261719 21.78046875 -13.61914062 22.8828125 C-13.65297852 24.54957031 -13.65297852 24.54957031 -13.6875 26.25 C-13.72166016 27.37664062 -13.75582031 28.50328125 -13.79101562 29.6640625 C-13.87343014 32.44260901 -13.94260298 35.22084252 -14 38 C-16.64 38 -19.28 38 -22 38 C-22 25.79 -22 13.58 -22 1 C-19.36 1 -16.72 1 -14 1 C-13.67 1.66 -13.34 2.32 -13 3 C-12.34 2.505 -11.68 2.01 -11 1.5 C-7.03366759 -0.48316621 -4.39696738 -0.22357461 0 0 Z " fill="#343434" transform="translate(541,81)"/>
<path d="M0 0 C3.51151441 -0.63588792 6.51579264 -0.86217649 10 0 C12.35146177 2.43254666 13.93501142 4.88751977 15.625 7.8125 C16.07875 8.534375 16.5325 9.25625 17 10 C17.66 10 18.32 10 19 10 C20.05895896 8.35729358 21.07247474 6.68514938 22.0625 5 C25.26880522 0.19730653 25.26880522 0.19730653 28.4609375 -0.6640625 C30.71619206 -0.62849066 32.79188422 -0.45063587 35 0 C33.38826594 3.5157515 31.31341763 6.54795194 29.0625 9.6875 C28.02802734 11.14736328 28.02802734 11.14736328 26.97265625 12.63671875 C25 15 25 15 22 16 C22 16.66 22 17.32 22 18 C19.09399739 19.25664978 17.20395416 20 14 20 C13.67 18.68 13.34 17.36 13 16 C12.34 16 11.68 16 11 16 C9.41179934 14.11549324 7.94717539 12.23813233 6.5 10.25 C6.09652344 9.71117188 5.69304687 9.17234375 5.27734375 8.6171875 C3.23378671 5.85197831 1.40400952 3.14376045 0 0 Z " fill="#272727" transform="translate(241,82)"/>
<path d="M0 0 C0.33 0 0.66 0 1 0 C1 8.58 1 17.16 1 26 C-1.31 26 -3.62 26 -6 26 C-6.33 24.68 -6.66 23.36 -7 22 C-7.5259375 22.680625 -7.5259375 22.680625 -8.0625 23.375 C-11.81976677 26.526256 -16.26963212 27.25886087 -21.0625 26.9375 C-25.63315496 26.16386774 -27.91853617 24.4572521 -31 21 C-32.30255289 16.86247904 -32.12959952 14.50975811 -31.0625 10.3125 C-28.50453685 6.20425615 -25.69479835 4.22551358 -21 3 C-18.74609375 3.40625 -18.74609375 3.40625 -17 4 C-17.99 4 -18.98 4 -20 4 C-20.33 5.32 -20.66 6.64 -21 8 C-18.69 8 -16.38 8 -14 8 C-14 8.33 -14 8.66 -14 9 C-15.11375 9.28875 -16.2275 9.5775 -17.375 9.875 C-21.00291092 10.69241329 -21.00291092 10.69241329 -23 13 C-23.16681109 16.08347826 -23.16681109 16.08347826 -23 19 C-21.41676312 19.027193 -19.83338938 19.04648306 -18.25 19.0625 C-17.36828125 19.07410156 -16.4865625 19.08570312 -15.578125 19.09765625 C-13.04027354 19.09283754 -13.04027354 19.09283754 -10.8125 18.4375 C-8.31249982 17.83405168 -7.13692058 18.70258393 -5 20 C-5 21.65 -5 23.3 -5 25 C-3.35 25 -1.7 25 0 25 C0 16.75 0 8.5 0 0 Z " fill="#373737" transform="translate(577,93)"/>
<path d="M0 0 C0.33 0 0.66 0 1 0 C1 2.31 1 4.62 1 7 C-8.57 7 -18.14 7 -28 7 C-25.65997965 12.8400582 -25.65997965 12.8400582 -22.3125 14.9375 C-17.91432109 16.34823663 -15.50290755 16.03345419 -11 15 C-9.29078411 13.4587688 -9.29078411 13.4587688 -8 12 C-4.9582904 12.28516028 -3.60954198 13.26030535 -1 15 C-2.50764655 19.22141034 -5.21292869 20.80349864 -9 23 C-14.09802418 25.03920967 -19.60282313 24.44993831 -24.6875 22.8125 C-28.16720871 20.90850844 -30.47931796 19.05537217 -33 16 C-33 13 -33 13 -32 10 C-31.34 9.67 -30.68 9.34 -30 9 C-29.67 8.01 -29.34 7.02 -29 6 C-19.43 6 -9.86 6 0 6 C0 4.02 0 2.04 0 0 Z " fill="#2D2D2D" transform="translate(364,96)"/>
<path d="M0 0 C4.38101079 3.05651915 7.2328087 5.98628229 8.5 11.25 C8.561875 12.11625 8.62375 12.9825 8.6875 13.875 C8.0275 13.215 7.3675 12.555 6.6875 11.875 C5.0375 12.865 3.3875 13.855 1.6875 14.875 C1.295625 13.946875 0.90375 13.01875 0.5 12.0625 C-1.50432683 8.53764937 -2.55574407 7.32647388 -6.3125 5.875 C-10.34638418 5.9457699 -12.50653907 6.19973543 -15.625 8.8125 C-16.4603125 9.8334375 -16.4603125 9.8334375 -17.3125 10.875 C-17.9725 11.535 -18.6325 12.195 -19.3125 12.875 C-21.9375 12.5 -21.9375 12.5 -24.3125 11.875 C-25.3025 13.195 -26.2925 14.515 -27.3125 15.875 C-27.08820809 10.37984816 -25.83918758 7.39395965 -22.0390625 3.38671875 C-15.79115344 -2.08373556 -7.60962153 -2.58439977 0 0 Z " fill="#2B2B2B" transform="translate(688.3125,82.125)"/>
<path d="M0 0 C0 3.3 0 6.6 0 10 C-9.57 10 -19.14 10 -29 10 C-29.33 11.32 -29.66 12.64 -30 14 C-30.33333333 15.33333333 -30.66666667 16.66666667 -31 18 C-32.9375 17.6875 -32.9375 17.6875 -35 17 C-36.04976964 13.85069107 -36.10131595 11.61185544 -36.0625 8.3125 C-36.05347656 7.31863281 -36.04445313 6.32476562 -36.03515625 5.30078125 C-36.02355469 4.54152344 -36.01195312 3.78226562 -36 3 C-34.1875 1.9375 -34.1875 1.9375 -32 1 C-31.01 1.33 -30.02 1.66 -29 2 C-29 3.32 -29 4.64 -29 6 C-21.74 6 -14.48 6 -7 6 C-7 4.35 -7 2.7 -7 1 C-4.50935112 0.31292445 -2.62113708 0 0 0 Z " fill="#191919" transform="translate(364,92)"/>
<path d="M0 0 C0.825 0.639375 1.65 1.27875 2.5 1.9375 C6.38802183 4.49589172 9.33257931 5 14 5 C17.21829104 3.07706482 17.21829104 3.07706482 20 1 C23.13660739 1.17923471 24.30713709 2.20475806 27 4 C25.95274189 7.25813633 24.42983232 8.53606177 21.5625 10.1875 C15.94245242 13.04682245 10.99934102 13.91847434 4.83984375 12.50390625 C0.21541739 10.97395585 -2.27765555 9.19694769 -5 5 C-3.35 3.35 -1.7 1.7 0 0 Z " fill="#373737" transform="translate(208,107)"/>
<path d="M0 0 C0.825 0.804375 1.65 1.60875 2.5 2.4375 C6.28917645 5.58171025 9.09658347 6 14 6 C16.74832154 4.71815438 16.74832154 4.71815438 19 3 C21.0625 2.125 21.0625 2.125 23 2 C25.25 3.4375 25.25 3.4375 27 5 C25.1341501 9.50913727 22.67517913 11.27662719 18.25 13.1875 C11.21054181 14.94736455 6.42077148 14.33386211 0 11 C-2.4375 9.4375 -2.4375 9.4375 -4 8 C-4 7.34 -4 6.68 -4 6 C-3.34 6 -2.68 6 -2 6 C-1.34 4.02 -0.68 2.04 0 0 Z " fill="#383838" transform="translate(669,106)"/>
<path d="M0 0 C2.31 0.33 4.62 0.66 7 1 C6.67 2.98 6.34 4.96 6 7 C12.93 7 19.86 7 27 7 C26.67 8.32 26.34 9.64 26 11 C19.4 11 12.8 11 6 11 C6.33 13.31 6.66 15.62 7 18 C5 20 5 20 2 21 C-0.9344087 16.91734441 -2.03648989 12.98999234 -2 8 C-1.52788559 5.22868842 -0.81961641 2.69991289 0 0 Z " fill="#1B1B1B" transform="translate(201,91)"/>
<path d="M0 0 C2.45327682 1.18706943 3.47654 2.673012 4.9375 4.9375 C-0.4106308 9.63737252 -5.71125763 12.54869626 -13.01171875 12.22265625 C-18.20796437 11.50013067 -21.96265161 10.11983702 -25.5625 6.25 C-26.305 5.1053125 -26.305 5.1053125 -27.0625 3.9375 C-25.7425 3.6075 -24.4225 3.2775 -23.0625 2.9375 C-23.0625 2.2775 -23.0625 1.6175 -23.0625 0.9375 C-20.38849748 1.39590043 -18.14979716 1.89614871 -15.6875 3.0625 C-12.12227243 4.25090919 -9.69159213 3.79528541 -6.0625 2.9375 C-2.02554591 -0.06138018 -2.02554591 -0.06138018 0 0 Z " fill="#363636" transform="translate(477.0625,108.0625)"/>
<path d="M0 0 C1.98 0 3.96 0 6 0 C7.43624757 11.71094169 6.69711736 23.25965839 6 35 C4.02 35 2.04 35 0 35 C0 23.45 0 11.9 0 0 Z " fill="#111111" transform="translate(373,83)"/>
<path d="M0 0 C6.27 0 12.54 0 19 0 C19 3.63 19 7.26 19 11 C12.73 11 6.46 11 0 11 C0 7.37 0 3.74 0 0 Z " fill="#242424" transform="translate(108,117)"/>
<path d="M0 0 C0 0.99 0 1.98 0 3 C-0.99 3.495 -0.99 3.495 -2 4 C-2 5.32 -2 6.64 -2 8 C-3.60875 7.938125 -3.60875 7.938125 -5.25 7.875 C-9.51121857 7.95911107 -9.51121857 7.95911107 -13 10 C-14.72502753 13.57449734 -15.28174992 16.57220608 -15.4140625 20.51953125 C-15.47207031 22.0519043 -15.47207031 22.0519043 -15.53125 23.61523438 C-15.57765625 25.19788086 -15.57765625 25.19788086 -15.625 26.8125 C-15.68300781 28.42415039 -15.68300781 28.42415039 -15.7421875 30.06835938 C-15.83618613 32.71207088 -15.92184573 35.3557805 -16 38 C-18.64 38 -21.28 38 -24 38 C-24 25.79 -24 13.58 -24 1 C-21.36 1 -18.72 1 -16 1 C-15.67 1.66 -15.34 2.32 -15 3 C-14.195625 2.505 -13.39125 2.01 -12.5625 1.5 C-8.17997546 -0.34527349 -4.67684769 -0.28061086 0 0 Z M-23 2 C-23 13.55 -23 25.1 -23 37 C-21.02 37 -19.04 37 -17 37 C-16.80052572 33.04217694 -16.61764519 29.08374621 -16.4375 25.125 C-16.35338867 23.46210937 -16.35338867 23.46210937 -16.26757812 21.765625 C-15.97209246 15.06794989 -16.09840979 8.64675992 -17 2 C-18.98 2 -20.96 2 -23 2 Z " fill="#5B5B5B" transform="translate(396,81)"/>
<path d="M0 0 C3.19871608 1.73872119 4.58701025 2.69853074 5.7578125 6.2109375 C4.7678125 6.2109375 3.7778125 6.2109375 2.7578125 6.2109375 C0.42705321 7.16959259 0.42705321 7.16959259 -1.2421875 10.2109375 C-1.9021875 9.2209375 -2.5621875 8.2309375 -3.2421875 7.2109375 C-9.31720333 5.79343381 -11.68482276 6.30595139 -17.2421875 9.2109375 C-20.63824305 8.26758874 -21.23630038 7.21976817 -23.2421875 4.2109375 C-15.85419739 -0.11033974 -8.62092915 -3.03384615 0 0 Z " fill="#292929" transform="translate(570.2421875,81.7890625)"/>
<path d="M0 0 C0.90105469 0.00902344 1.80210937 0.01804687 2.73046875 0.02734375 C3.41753906 0.03894531 4.10460937 0.05054687 4.8125 0.0625 C4.8125 0.3925 4.8125 0.7225 4.8125 1.0625 C3.1625 1.3925 1.5125 1.7225 -0.1875 2.0625 C-0.1875 2.7225 -0.1875 3.3825 -0.1875 4.0625 C-3.14031721 7.69673657 -5.83940316 8.61313439 -10.1875 10.0625 C-10.5175 11.0525 -10.8475 12.0425 -11.1875 13.0625 C-13.75366632 9.21325052 -13.73847676 6.6275696 -14.1875 2.0625 C-16.1675 2.0625 -18.1475 2.0625 -20.1875 2.0625 C-20.1875 20.8725 -20.1875 39.6825 -20.1875 59.0625 C-20.5175 59.0625 -20.8475 59.0625 -21.1875 59.0625 C-21.1875 39.9225 -21.1875 20.7825 -21.1875 1.0625 C-18.5475 1.0625 -15.9075 1.0625 -13.1875 1.0625 C-12.8575 2.0525 -12.5275 3.0425 -12.1875 4.0625 C-11.589375 3.588125 -10.99125 3.11375 -10.375 2.625 C-6.89560722 0.13971945 -4.15420067 -0.05395066 0 0 Z " fill="#757575" transform="translate(304.1875,80.9375)"/>
<path d="M0 0 C4.866909 0.45273572 7.4419325 1.64525064 11 5 C12.53214888 8.06429776 12.22938548 10.6165642 12 14 C10.63035715 17.0816964 9.70715882 18.57570471 6.8125 20.3125 C5.9153125 20.6528125 5.9153125 20.6528125 5 21 C4 18 4 18 4 15 C2.35 15.33 0.7 15.66 -1 16 C0.32 15.34 1.64 14.68 3 14 C2.67 12.35 2.34 10.7 2 9 C0.02 8.34 -1.96 7.68 -4 7 C-3.360625 6.71125 -2.72125 6.4225 -2.0625 6.125 C0.15206079 5.17176549 0.15206079 5.17176549 1 3 C0.67 2.01 0.34 1.02 0 0 Z " fill="#313131" transform="translate(429,97)"/>
<path d="M0 0 C2.125 0.9375 2.125 0.9375 4 2 C4 2.66 4 3.32 4 4 C4.58265625 4.07476562 5.1653125 4.14953125 5.765625 4.2265625 C8.77801539 5.26931302 9.83993906 6.85274004 11.75 9.375 C12.36359375 10.16648437 12.9771875 10.95796875 13.609375 11.7734375 C15 14 15 14 15 17 C11.74161919 17.83192702 9.24068277 17.97171897 6 17 C2.28910427 13.4375401 -0.63127218 9.59461779 -3 5 C-2.8671875 2.671875 -2.8671875 2.671875 -2 1 C-1.34 0.67 -0.68 0.34 0 0 Z " fill="#323232" transform="translate(263,102)"/>
<path d="M0 0 C5.16465418 4.21604423 10.01287003 8.61919239 14 14 C14 14.66 14 15.32 14 16 C10.54237431 16.50090352 7.44079211 16.67916942 4 16 C1.1214216 13.69309007 -0.94483215 11.04872582 -3 8 C-2.690625 7.236875 -2.38125 6.47375 -2.0625 5.6875 C-1.32106407 3.81210323 -0.63771783 1.91315348 0 0 Z " fill="#393939" transform="translate(643,103)"/>
<path d="M0 0 C0 2.83967231 -0.40267181 5.23735711 -1 8 C0.32 8.33 1.64 8.66 3 9 C-2.89487324 12.20373545 -7.45012661 12.49363667 -14 11 C-17.125 9.4375 -17.125 9.4375 -19 8 C-18.01 7.67 -17.02 7.34 -16 7 C-16 5.35 -16 3.7 -16 2 C-14.824375 2.391875 -13.64875 2.78375 -12.4375 3.1875 C-7.65555686 4.41276657 -5.25262398 3.3432826 -1 1 C-0.67 0.67 -0.34 0.34 0 0 Z " fill="#3C3C3C" transform="translate(311,108)"/>
<path d="M0 0 C0.33 0 0.66 0 1 0 C1 2.31 1 4.62 1 7 C-8.57 7 -18.14 7 -28 7 C-24.84413588 13.35368189 -24.84413588 13.35368189 -19 16 C-20.98 16.99 -20.98 16.99 -23 18 C-23 18.66 -23 19.32 -23 20 C-23.66 20 -24.32 20 -25 20 C-25 20.66 -25 21.32 -25 22 C-29.41889613 20.64978174 -31.34345343 18.73884332 -34 15 C-33.67 14.34 -33.34 13.68 -33 13 C-32.67 12.01 -32.34 11.02 -32 10 C-31.34 9.67 -30.68 9.34 -30 9 C-29.67 8.01 -29.34 7.02 -29 6 C-19.43 6 -9.86 6 0 6 C0 4.02 0 2.04 0 0 Z " fill="#484848" transform="translate(364,96)"/>
<path d="M0 0 C0 0.33 0 0.66 0 1 C-2.64 1.33 -5.28 1.66 -8 2 C-7.67 3.32 -7.34 4.64 -7 6 C-7.928125 6.5775 -8.85625 7.155 -9.8125 7.75 C-12.59815842 9.71634712 -14.18738696 11.18037972 -16 14 C-17.65 13.67 -19.3 13.34 -21 13 C-21.99 14.32 -22.98 15.64 -24 17 C-23.77570809 11.50484816 -22.52668758 8.51895965 -18.7265625 4.51171875 C-13.07771709 -0.43421603 -7.08688663 -0.38500189 0 0 Z " fill="#3D3D3D" transform="translate(685,81)"/>
<path d="M0 0 C1.65 1.65 3.3 3.3 5 5 C4.5 6.8125 4.5 6.8125 3 9 C-1.52419771 11.48000746 -5.83927774 12.38705417 -11 12 C-10.34 11.34 -9.68 10.68 -9 10 C-9 8.68 -9 7.36 -9 6 C-9.99 5.34 -10.98 4.68 -12 4 C-11.38511719 3.87882812 -10.77023437 3.75765625 -10.13671875 3.6328125 C-9.32847656 3.46523437 -8.52023437 3.29765625 -7.6875 3.125 C-6.88699219 2.96257812 -6.08648438 2.80015625 -5.26171875 2.6328125 C-2.74698882 2.05521001 -2.74698882 2.05521001 0 0 Z " fill="#414141" transform="translate(613,108)"/>
<path d="M0 0 C0.99 0.33 1.98 0.66 3 1 C3 1.99 3 2.98 3 4 C3.66 4.66 4.32 5.32 5 6 C4.071875 6.86625 4.071875 6.86625 3.125 7.75 C0.71889788 10.08052993 0.71889788 10.08052993 -1 14 C5.93 14 12.86 14 20 14 C20 14.33 20 14.66 20 15 C12.74 15 5.48 15 -2 15 C-2 13.68 -2 12.36 -2 11 C-3.98 11 -5.96 11 -8 11 C-6.68874798 5.3616163 -4.671254 3.14594657 0 0 Z " fill="#3B3B3B" transform="translate(337,83)"/>
<path d="M0 0 C1.41823316 0.08006155 2.83603027 0.17654137 4.25 0.3125 C2.78181332 3.41992423 1.04975 6.21721739 -0.875 9.0625 C-1.68324219 10.26132813 -1.68324219 10.26132813 -2.5078125 11.484375 C-2.91773438 12.08765625 -3.32765625 12.6909375 -3.75 13.3125 C-4.08 12.6525 -4.41 11.9925 -4.75 11.3125 C-7.77934491 10.65477572 -7.77934491 10.65477572 -10.75 10.3125 C-8.6793872 4.27321268 -6.85696479 0 0 0 Z " fill="#3A3A3A" transform="translate(271.75,81.6875)"/>
<path d="M0 0 C2.29013653 3.4352048 2.17842973 4.985331 2 9 C-1.63 9 -5.26 9 -9 9 C-9.48492623 2.57472739 -9.48492623 2.57472739 -7.3125 0 C-4.3733951 -1.27096428 -2.98417102 -1.09943143 0 0 Z " fill="#6E6E6E" transform="translate(121,105)"/>
<path d="M0 0 C-0.99 0 -1.98 0 -3 0 C-3.33 1.32 -3.66 2.64 -4 4 C-1.69 4 0.62 4 3 4 C3 4.33 3 4.66 3 5 C1.4221875 5.37125 1.4221875 5.37125 -0.1875 5.75 C-3.84468885 6.78019404 -6.08841421 8.54813828 -9 11 C-11.8125 12.25 -11.8125 12.25 -14 13 C-14.42455919 8.66949629 -14.53642731 6.68969225 -11.8125 3.1875 C-7.84471311 0.10144353 -4.95112519 -1.83375007 0 0 Z " fill="#383838" transform="translate(560,97)"/>
<path d="M0 0 C0.33 0 0.66 0 1 0 C1 8.58 1 17.16 1 26 C-1.31 26 -3.62 26 -6 26 C-6.33 24.68 -6.66 23.36 -7 22 C-7.37125 22.474375 -7.7425 22.94875 -8.125 23.4375 C-10.62646962 25.52205802 -12.81593418 25.64621491 -16 26 C-15.67 24.68 -15.34 23.36 -15 22 C-16.98 21.67 -18.96 21.34 -21 21 C-21 20.67 -21 20.34 -21 20 C-19.08655626 19.60888729 -17.16903447 19.23768833 -15.25 18.875 C-14.18265625 18.66617188 -13.1153125 18.45734375 -12.015625 18.2421875 C-8.86311649 17.98900676 -7.60040934 18.29584825 -5 20 C-5 21.65 -5 23.3 -5 25 C-3.35 25 -1.7 25 0 25 C0 16.75 0 8.5 0 0 Z " fill="#818181" transform="translate(577,93)"/>
<path d="M0 0 C3.33333333 1.33333333 6.66666667 2.66666667 10 4 C9.360625 4.78375 8.72125 5.5675 8.0625 6.375 C6.01857687 8.79539281 6.01857687 8.79539281 5 11 C0.68607774 10.5206753 -1.16569547 9.2542015 -4 6 C-2.84826645 3.53199953 -1.95216435 1.95216435 0 0 Z " fill="#3A3A3A" transform="translate(416,108)"/>
<path d="M0 0 C4.67598883 0.01339825 4.67598883 0.01339825 7.0234375 1.4921875 C8.375 2.875 8.375 2.875 10.25 5.375 C9.59 5.375 8.93 5.375 8.25 5.375 C8.25 6.035 8.25 6.695 8.25 7.375 C6.27 8.365 6.27 8.365 4.25 9.375 C3.321875 8.735625 2.39375 8.09625 1.4375 7.4375 C-1.59219943 5.28877907 -1.59219943 5.28877907 -4.75 4.375 C-5.08 3.385 -5.41 2.395 -5.75 1.375 C-4.10843264 -0.26656736 -2.25784199 0.08684008 0 0 Z " fill="#363636" transform="translate(221.75,81.625)"/>
<path d="M0 0 C2.97 0 5.94 0 9 0 C9 2.64 9 5.28 9 8 C7.39773045 8.22245393 5.79303233 8.42746669 4.1875 8.625 C3.29417969 8.74101563 2.40085937 8.85703125 1.48046875 8.9765625 C-1 9 -1 9 -4 7 C-3.34 7 -2.68 7 -2 7 C-1.34 4.69 -0.68 2.38 0 0 Z " fill="#555555" transform="translate(502,111)"/>
<path d="M0 0 C1.875 0.25 1.875 0.25 4 1 C5.77138429 3.36184572 6.0284814 4.61075423 5.8125 7.5625 C5 10 5 10 2 13 C-0.31 10.69 -2.62 8.38 -5 6 C-4.360625 5.566875 -3.72125 5.13375 -3.0625 4.6875 C-0.73253997 3.08760823 -0.73253997 3.08760823 0 0 Z " fill="#313131" transform="translate(637,97)"/>
<path d="M0 0 C1.17949219 0.01804687 2.35898437 0.03609375 3.57421875 0.0546875 C4.92966797 0.08949219 4.92966797 0.08949219 6.3125 0.125 C6.9725 1.445 7.6325 2.765 8.3125 4.125 C7.9825 4.455 7.6525 4.785 7.3125 5.125 C4.97577016 4.8163753 2.64256911 4.48043427 0.3125 4.125 C-3.77128077 4.125 -6.81065913 4.93212589 -10.6875 6.125 C-10.375 4.25 -10.375 4.25 -9.6875 2.125 C-6.05554504 -0.29630331 -4.30400652 -0.08522785 0 0 Z " fill="#2C2C2C" transform="translate(463.6875,81.875)"/>
<path d="M0 0 C2.98704569 0.49784095 4.39324263 1.26216175 7 3 C5.61122646 6.35620271 4.08322035 8.07298728 1 10 C0.34 10 -0.32 10 -1 10 C-1.268125 9.38125 -1.53625 8.7625 -1.8125 8.125 C-2.95556848 5.7004767 -2.95556848 5.7004767 -6 4 C-5.195625 3.525625 -4.39125 3.05125 -3.5625 2.5625 C-1.15246512 1.23099846 -1.15246512 1.23099846 0 0 Z " fill="#424242" transform="translate(356,108)"/>
<path d="M0 0 C1.21236328 0.01353516 1.21236328 0.01353516 2.44921875 0.02734375 C3.37154297 0.04474609 3.37154297 0.04474609 4.3125 0.0625 C4.3125 0.7225 4.3125 1.3825 4.3125 2.0625 C5.3025 1.7325 6.2925 1.4025 7.3125 1.0625 C6.6525 2.3825 5.9925 3.7025 5.3125 5.0625 C0.6925 5.0625 -3.9275 5.0625 -8.6875 5.0625 C-8.3575 3.7425 -8.0275 2.4225 -7.6875 1.0625 C-4.80538698 0.10179566 -2.98899956 -0.04331883 0 0 Z " fill="#131313" transform="translate(564.6875,95.9375)"/>
<path d="M0 0 C4.8 3.44615385 4.8 3.44615385 5.8125 6.25 C5.874375 6.8275 5.93625 7.405 6 8 C4.02 8.33 2.04 8.66 0 9 C-0.33 9.99 -0.66 10.98 -1 12 C-1.28875 11.236875 -1.5775 10.47375 -1.875 9.6875 C-2.96269013 6.84970692 -2.96269013 6.84970692 -5 4 C-4.34 4 -3.68 4 -3 4 C-2.67 3.01 -2.34 2.02 -2 1 C-1.34 0.67 -0.68 0.34 0 0 Z " fill="#373737" transform="translate(357,84)"/>
<path d="M0 0 C4.87362847 0.45336079 7.39042389 1.7089159 11 5 C10.67 5.66 10.34 6.32 10 7 C8.8553125 6.938125 8.8553125 6.938125 7.6875 6.875 C4.77281584 6.77919176 4.77281584 6.77919176 2 9 C-1.1875 8.125 -1.1875 8.125 -4 7 C-3.360625 6.71125 -2.72125 6.4225 -2.0625 6.125 C0.15206079 5.17176549 0.15206079 5.17176549 1 3 C0.67 2.01 0.34 1.02 0 0 Z " fill="#424242" transform="translate(429,97)"/>
<path d="M0 0 C1.0209375 0.5878125 1.0209375 0.5878125 2.0625 1.1875 C-1.18475341 3.35233561 -4.44427312 5.44088656 -7.9375 7.1875 C-7.9375 6.5275 -7.9375 5.8675 -7.9375 5.1875 C-8.9275 5.1875 -9.9175 5.1875 -10.9375 5.1875 C-10.9375 5.8475 -10.9375 6.5075 -10.9375 7.1875 C-12.2575 6.8575 -13.5775 6.5275 -14.9375 6.1875 C-14.2775 4.5375 -13.6175 2.8875 -12.9375 1.1875 C-11.9475 1.5175 -10.9575 1.8475 -9.9375 2.1875 C-8.82375 1.671875 -7.71 1.15625 -6.5625 0.625 C-2.9375 -0.8125 -2.9375 -0.8125 0 0 Z " fill="#323232" transform="translate(463.9375,84.8125)"/>
<path d="M0 0 C1.98 0 3.96 0 6 0 C6 3.3 6 6.6 6 10 C1.125 9.125 1.125 9.125 0 8 C-0.14115161 5.32941149 -0.04247107 2.67567762 0 0 Z " fill="#101010" transform="translate(494,73)"/>
<path d="M0 0 C6.98629919 -0.50604984 11.20200116 -0.0333905 17 4 C15.66666667 6.66666667 14.33333333 9.33333333 13 12 C12.38125 11.071875 12.38125 11.071875 11.75 10.125 C9.94426121 7.93231719 8.5909466 7.07211583 6 6 C7.32 5.67 8.64 5.34 10 5 C9.67 4.01 9.34 3.02 9 2 C6.03 1.67 3.06 1.34 0 1 C0 0.67 0 0.34 0 0 Z " fill="#4E4E4E" transform="translate(461,81)"/>
<path d="M0 0 C1.32 0.66 2.64 1.32 4 2 C4.375 4.25 4.375 4.25 4 7 C1.125 9.1875 1.125 9.1875 -2 11 C-2.66 11.66 -3.32 12.32 -4 13 C-5.23709526 9.28871422 -4.64412851 8.45266987 -3 5 C-2.02763513 3.3170608 -1.03435556 1.64556566 0 0 Z " fill="#333333" transform="translate(531,82)"/>
<path d="M0 0 C2.29013653 3.4352048 2.17842973 4.985331 2 9 C-0.64 9 -3.28 9 -6 9 C-5.25 4.25 -5.25 4.25 -3 2 C-2.01 1.34 -1.02 0.68 0 0 Z " fill="#101010" transform="translate(695,93)"/>
<path d="M0 0 C4.67692308 1.47692308 4.67692308 1.47692308 6.3125 4.125 C6.539375 4.74375 6.76625 5.3625 7 6 C6.01 6 5.02 6 4 6 C1.66924071 6.95865509 1.66924071 6.95865509 0 10 C-0.66 9.01 -1.32 8.02 -2 7 C-2.99 6.34 -3.98 5.68 -5 5 C-3.625 3.5 -3.625 3.5 -2 2 C-1.34 2 -0.68 2 0 2 C0 1.34 0 0.68 0 0 Z " fill="#363636" transform="translate(569,82)"/>
<path d="M0 0 C3.45394199 -0.49147001 6.56617883 -0.69494 10 0 C12.6162447 2.33009294 14.32081081 4.9419644 16 8 C15.67 8.66 15.34 9.32 15 10 C14.34 9.67 13.68 9.34 13 9 C12.67 9.66 12.34 10.32 12 11 C12 10.01 12 9.02 12 8 C11.01 7.67 10.02 7.34 9 7 C8.25 5.0625 8.25 5.0625 8 3 C8.33 2.34 8.66 1.68 9 1 C6.69 1 4.38 1 2 1 C1.67 1.66 1.34 2.32 1 3 C0.67 2.01 0.34 1.02 0 0 Z " fill="#464646" transform="translate(241,82)"/>
<path d="M0 0 C0.66 0.33 1.32 0.66 2 1 C1.835 1.598125 1.67 2.19625 1.5 2.8125 C0.8885876 5.11344336 0.8885876 5.11344336 1 8 C-0.32 8.33 -1.64 8.66 -3 9 C-4.32 7.35 -5.64 5.7 -7 4 C-1.7265625 0.77734375 -1.7265625 0.77734375 0 0 Z " fill="#424242" transform="translate(554,82)"/>
<path d="M0 0 C4.75 0.75 4.75 0.75 7 3 C7 3.99 7 4.98 7 6 C4.03 6 1.06 6 -2 6 C-1.34 4.02 -0.68 2.04 0 0 Z " fill="#494949" transform="translate(271,113)"/>
<path d="M0 0 C2.31 0.66 4.62 1.32 7 2 C5.125 5.875 5.125 5.875 4 7 C4.66 7.66 5.32 8.32 6 9 C0.46153846 8.38461538 0.46153846 8.38461538 -1.875 6.4375 C-2.24625 5.963125 -2.6175 5.48875 -3 5 C-2.01 5 -1.02 5 0 5 C0 3.35 0 1.7 0 0 Z " fill="#454545" transform="translate(295,110)"/>
<path d="M0 0 C0.99 0.33 1.98 0.66 3 1 C3 2.98 3 4.96 3 7 C0.03 7 -2.94 7 -6 7 C-4.75686537 3.27059611 -3.23014784 2.15343189 0 0 Z " fill="#121212" transform="translate(119,106)"/>
<path d="M0 0 C1.67542976 0.28604898 3.34385343 0.61781233 5 1 C5.33 1.99 5.66 2.98 6 4 C4 6 4 6 0.375 6.125 C-0.73875 6.08375 -1.8525 6.0425 -3 6 C-1.125 1.125 -1.125 1.125 0 0 Z " fill="#1C1C1C" transform="translate(425,97)"/>
<path d="M0 0 C0.66 0 1.32 0 2 0 C4.125 4.625 4.125 4.625 3 8 C3 7.34 3 6.68 3 6 C2.01 6.495 2.01 6.495 1 7 C1.33 8.32 1.66 9.64 2 11 C-0.475 10.01 -0.475 10.01 -3 9 C-2.7525 8.1028125 -2.7525 8.1028125 -2.5 7.1875 C-1.8885876 4.88655664 -1.8885876 4.88655664 -2 2 C-1.34 1.34 -0.68 0.68 0 0 Z " fill="#505050" transform="translate(117,87)"/>
<path d="M0 0 C1.4540625 0.0309375 1.4540625 0.0309375 2.9375 0.0625 C3.2675 2.0425 3.5975 4.0225 3.9375 6.0625 C3.2775 5.4025 2.6175 4.7425 1.9375 4.0625 C-0.5375 5.5475 -0.5375 5.5475 -3.0625 7.0625 C-4.0625 6.0625 -4.0625 6.0625 -4.1875 3.5625 C-4.00295237 -0.12845252 -3.76342282 0.07680455 0 0 Z " fill="#323232" transform="translate(693.0625,89.9375)"/>
<path d="M0 0 C1.14926266 0.95421808 2.29430541 1.91352045 3.4375 2.875 C4.07558594 3.40867187 4.71367188 3.94234375 5.37109375 4.4921875 C7 6 7 6 8 8 C5.8125 8.8125 5.8125 8.8125 3 9 C0.1875 6.5625 0.1875 6.5625 -2 4 C-1.34 2.68 -0.68 1.36 0 0 Z " fill="#424242" transform="translate(643,103)"/>
<path d="M0 0 C2.31 0 4.62 0 7 0 C6.690625 0.598125 6.38125 1.19625 6.0625 1.8125 C4.89790296 4.08956772 4.89790296 4.08956772 4 7 C2.68 6.67 1.36 6.34 0 6 C0 4.02 0 2.04 0 0 Z " fill="#1C1C1C" transform="translate(414,92)"/>
<path d="M0 0 C2.05078125 0.03255208 4.1015625 0.06510417 6.15234375 0.09765625 C5.16234375 0.59265625 5.16234375 0.59265625 4.15234375 1.09765625 C4.48234375 2.74765625 4.81234375 4.39765625 5.15234375 6.09765625 C2.76670298 5.52181193 0.48551591 4.8753803 -1.84765625 4.09765625 C-2.17765625 3.10765625 -2.50765625 2.11765625 -2.84765625 1.09765625 C-1.84765625 0.09765625 -1.84765625 0.09765625 0 0 Z " fill="#1B1B1B" transform="translate(218.84765625,81.90234375)"/>
<path d="M0 0 C0.33 1.32 0.66 2.64 1 4 C0.34 4 -0.32 4 -1 4 C-1.66 5.32 -2.32 6.64 -3 8 C-4.32 7.34 -5.64 6.68 -7 6 C-6.67 5.34 -6.34 4.68 -6 4 C-5.67 3.01 -5.34 2.02 -5 1 C-3 0 -3 0 0 0 Z " fill="#313131" transform="translate(337,105)"/>
<path d="M0 0 C2.5654594 2.5654594 2.54046087 4.47686668 3 8 C1.02 8.33 -0.96 8.66 -3 9 C-3.33 8.01 -3.66 7.02 -4 6 C-3.34 6 -2.68 6 -2 6 C-1.34 4.02 -0.68 2.04 0 0 Z " fill="#2C2C2C" transform="translate(669,106)"/>
<path d="M0 0 C1.32 0.66 2.64 1.32 4 2 C3.34 3.65 2.68 5.3 2 7 C0.68 6.67 -0.64 6.34 -2 6 C-2.33 4.68 -2.66 3.36 -3 2 C-2.01 1.34 -1.02 0.68 0 0 Z " fill="#232323" transform="translate(263,102)"/>
<path d="M0 0 C0 1.32 0 2.64 0 4 C-2.31 3.67 -4.62 3.34 -7 3 C-7 2.01 -7 1.02 -7 0 C-3.86650268 -1.04449911 -3.01031744 -0.93423645 0 0 Z " fill="#111111" transform="translate(471,83)"/>
<path d="M0 0 C0.66 1.32 1.32 2.64 2 4 C0.02 4.99 -1.96 5.98 -4 7 C-4.66 6.01 -5.32 5.02 -6 4 C-2.25 0 -2.25 0 0 0 Z " fill="#222222" transform="translate(64,113)"/>
<path d="M0 0 C1.98 0 3.96 0 6 0 C6 1.65 6 3.3 6 5 C5.01 5.33 4.02 5.66 3 6 C0 2.25 0 2.25 0 0 Z " fill="#121212" transform="translate(504,113)"/>
<path d="M0 0 C0.66 0.33 1.32 0.66 2 1 C2.625 4.0625 2.625 4.0625 3 7 C2.01 7.495 2.01 7.495 1 8 C0.34 7.67 -0.32 7.34 -1 7 C-1 6.34 -1 5.68 -1 5 C-1.99 5 -2.98 5 -4 5 C-4 4.34 -4 3.68 -4 3 C-3.01 2.67 -2.02 2.34 -1 2 C-0.67 1.34 -0.34 0.68 0 0 Z " fill="#202020" transform="translate(293,108)"/>
<path d="M0 0 C2.31 0 4.62 0 7 0 C7.33 0.66 7.66 1.32 8 2 C9.65 1.34 11.3 0.68 13 0 C11.38405168 2.04119788 9.7143618 4.04072937 8 6 C7.34 6 6.68 6 6 6 C6 4.35 6 2.7 6 1 C4.02 1 2.04 1 0 1 C0 0.67 0 0.34 0 0 Z " fill="#666666" transform="translate(373,82)"/>
<path d="M0 0 C0.99 0.33 1.98 0.66 3 1 C3 1.66 3 2.32 3 3 C3.66 3 4.32 3 5 3 C5 3.66 5 4.32 5 5 C3 6.625 3 6.625 1 8 C1 6.68 1 5.36 1 4 C-0.32 4 -1.64 4 -3 4 C-2 2 -2 2 0 0 Z " fill="#6D6D6D" transform="translate(112,81)"/>
<path d="M0 0 C0.66 0 1.32 0 2 0 C1.814375 0.94875 1.62875 1.8975 1.4375 2.875 C0.71313368 5.89868793 0.71313368 5.89868793 2 8 C0.68 8 -0.64 8 -2 8 C-3 5 -3 5 -1.6875 2.3125 C-1.130625 1.549375 -0.57375 0.78625 0 0 Z " fill="#0F0F0F" transform="translate(312,108)"/>
<path d="M0 0 C0.94875 0.350625 1.8975 0.70125 2.875 1.0625 C1.875 4.0625 1.875 4.0625 -1.125 6.0625 C-1.41375 5.44375 -1.7025 4.825 -2 4.1875 C-3.06220042 1.92924235 -3.06220042 1.92924235 -5.125 0.0625 C-3.125 -0.9375 -3.125 -0.9375 0 0 Z " fill="#0F0F0F" transform="translate(254.125,90.9375)"/>
<path d="M0 0 C2.64 0.66 5.28 1.32 8 2 C8 3.32 8 4.64 8 6 C4.08597051 4.73058503 2.20927127 3.48832306 0 0 Z " fill="#444444" transform="translate(450,112)"/>
<path d="M0 0 C0.598125 0.45375 1.19625 0.9075 1.8125 1.375 C3.50590652 2.63295913 5.24477086 3.82984724 7 5 C5.35 5.66 3.7 6.32 2 7 C0.4375 4.625 0.4375 4.625 -1 2 C-0.67 1.34 -0.34 0.68 0 0 Z M1 7 C1.66 7.66 2.32 8.32 3 9 C2.34 9 1.68 9 1 9 C1 8.34 1 7.68 1 7 Z " fill="#505050" transform="translate(421,92)"/>
<path d="M0 0 C1.65 0 3.3 0 5 0 C5.33 1.32 5.66 2.64 6 4 C4.68 4.33 3.36 4.66 2 5 C1.34 3.35 0.68 1.7 0 0 Z " fill="#101010" transform="translate(557,114)"/>
<path d="M0 0 C1.65 0 3.3 0 5 0 C4.34 1.65 3.68 3.3 3 5 C2.01 5 1.02 5 0 5 C0 3.35 0 1.7 0 0 Z " fill="#101010" transform="translate(486,83)"/>
<path d="M0 0 C2.0625 0.4375 2.0625 0.4375 4 1 C3 4 3 4 0.9375 5.1875 C0.298125 5.455625 -0.34125 5.72375 -1 6 C-1.042721 4.33388095 -1.04063832 2.66617115 -1 1 C-0.67 0.67 -0.34 0.34 0 0 Z " fill="#2B2B2B" transform="translate(476,86)"/>
<path d="M0 0 C0.99 0.33 1.98 0.66 3 1 C2.67 2.65 2.34 4.3 2 6 C0.68 5.34 -0.64 4.68 -2 4 C-1.34 2.68 -0.68 1.36 0 0 Z " fill="#222222" transform="translate(314,110)"/>
<path d="M0 0 C0.33 0.99 0.66 1.98 1 3 C-0.32 4.32 -1.64 5.64 -3 7 C-3.99 6.67 -4.98 6.34 -6 6 C-4.02 4.02 -2.04 2.04 0 0 Z " fill="#707070" transform="translate(639,88)"/>
<path d="M0 0 C0.99 0.99 1.98 1.98 3 3 C2.34 3.66 1.68 4.32 1 5 C0.34 3.68 -0.32 2.36 -1 1 C-0.67 0.67 -0.34 0.34 0 0 Z M-3 3 C-2.01 3.495 -2.01 3.495 -1 4 C-1.99 4.495 -1.99 4.495 -3 5 C-3 4.34 -3 3.68 -3 3 Z M-5 5 C-4.34 5 -3.68 5 -3 5 C-3.33 5.99 -3.66 6.98 -4 8 C-4.33 7.01 -4.66 6.02 -5 5 Z " fill="#535353" transform="translate(573,84)"/>
<path d="M0 0 C1.32 0 2.64 0 4 0 C3.67 1.98 3.34 3.96 3 6 C2.01 5.67 1.02 5.34 0 5 C0 3.35 0 1.7 0 0 Z " fill="#222222" transform="translate(339,82)"/>
<path d="M0 0 C2.475 0.495 2.475 0.495 5 1 C4.01 1.495 4.01 1.495 3 2 C3.33 2.99 3.66 3.98 4 5 C2.68 4.67 1.36 4.34 0 4 C0 2.68 0 1.36 0 0 Z " fill="#303030" transform="translate(454,109)"/>
<path d="M0 0 C1.98 0 3.96 0 6 0 C5.01 0.495 5.01 0.495 4 1 C2.86649466 3.01669827 2.86649466 3.01669827 2 5 C1.34 4.34 0.68 3.68 0 3 C0 2.01 0 1.02 0 0 Z " fill="#303030" transform="translate(243,83)"/>
</svg>
